<?xml version="1.0" encoding="utf-8"?>
<!-- Generator: Adobe Illustrator 16.0.0, SVG Export Plug-In . SVG Version: 6.00 Build 0)  -->
<!DOCTYPE svg PUBLIC "-//W3C//DTD SVG 1.1//EN" "http://www.w3.org/Graphics/SVG/1.1/DTD/svg11.dtd">
<svg version="1.1" id="Camada_1" xmlns="http://www.w3.org/2000/svg" xmlns:xlink="http://www.w3.org/1999/xlink" x="0px" y="0px"
	 width="292px" height="293px" viewBox="0 0 292 293" enable-background="new 0 0 292 293" xml:space="preserve">
<g>
	<path fill="#FFFFFF" d="M122.108,123.288l-12.321-12.321c-6.804,34.163-21.942,71.082-44.504,107.505
		c-1.823,2.92,2.061,6.002,4.487,3.574l57.332-57.332C115.346,152.799,113.449,135.141,122.108,123.288z"/>
	<g>
		<path fill="#FFFFFF" d="M217.896,80.236c-18.483,31.376-31.758,63.498-38.751,93.773l-9.056-9.055
			c10.823-12.889,13.229-30.212,5.959-42.873L217.896,80.236 M223.552,70.056c-0.685,0-1.394,0.261-2.006,0.875l-50.619,50.619
			c8.927,12.02,6.451,30.708-6.37,43.528h-0.001l16.954,16.953c6.82-34.184,21.961-71.1,44.521-107.525
			C227.395,72.326,225.572,70.056,223.552,70.056L223.552,70.056z"/>
	</g>
	<path fill="#FFFFFF" d="M246.802,45.688C191.134-9.98,100.866-9.96,45.198,45.708c-55.667,55.668-55.668,145.917,0,201.585
		c55.667,55.668,145.936,55.688,201.603,0.02C302.47,191.643,302.47,101.355,246.802,45.688 M56.963,235.527
		C7.789,186.354,7.77,106.627,56.944,57.453C106.118,8.278,185.845,8.296,235.02,57.47c49.174,49.174,49.174,128.883-0.002,178.057
		C185.844,284.701,106.136,284.701,56.963,235.527"/>
	<path fill="#FFFFFF" d="M144.532,147.637l-16.626,16.627c-9.813-9.812-9.795-25.735,0-35.53l17.766,17.766L144.532,147.637"/>
	<path fill="#FFFFFF" d="M146.428,146.5l17.766-17.766c9.813,9.813,9.813,25.718,0,35.532L146.428,146.5"/>
</g>
</svg>
