<?xml version="1.0" encoding="utf-8"?>
<!-- Generator: Adobe Illustrator 16.0.0, SVG Export Plug-In . SVG Version: 6.00 Build 0)  -->
<!DOCTYPE svg PUBLIC "-//W3C//DTD SVG 1.1//EN" "http://www.w3.org/Graphics/SVG/1.1/DTD/svg11.dtd">
<svg version="1.1" id="Camada_1" xmlns="http://www.w3.org/2000/svg" xmlns:xlink="http://www.w3.org/1999/xlink" x="0px" y="0px"
	 width="261px" height="134px" viewBox="0 0 261 134" enable-background="new 0 0 261 134" xml:space="preserve">
<path fill="#FFFFFF" d="M158.322,61.902c-2.575,0.751-6.891,3.681-10.221,7.218c-0.004-0.006-0.006-0.01-0.01-0.016
	c-4.049-6.054-3.041-9.765-2.627-11.997c0.416-2.231-2.15-3.25-3.779-1.489c-1.629,1.761-2.118,6.509-2.118,6.509l-5.009,13.217
	l0.021,0.014c-0.915,2.182-3.988,9.139-5.134,7.018c-1.353-2.505,1.023-11.878,1.437-14.691c0.459-3.139,0.043-4.157-1.864-4.299
	c-0.939-0.07-1.639,0.461-2.107,1.017c-0.482,0.574-0.719,1.175-0.719,1.175s-0.03,0.14-0.083,0.392l-3.239,6.324
	c0,0-4.521,9.63-6.194,8.506c0,0-1.028-2.035-0.105-6.113c0.616-2.721,2.694-7.016,5.405-8.063c1.751-0.678,2.675-0.405,2.824-1.14
	c0.149-0.734-2.282-3.179-4.968-2.383c-2.687,0.796-5.715,3.456-7.698,8.526c-0.899,2.296-1.257,4.479-1.088,6.346
	c-0.927,2.225-3.074,6.832-5.009,6.994c-2.554,0.213-1.8-11.02-1.151-15.406c0.441-2.975,1.48-9.173,3.283-14.368
	c0.934-2.691,2.131-5.117,2.77-6.38c2.554-5.042,5.2-4.175,5.325-4.14c0.148,0.045,0.811,0.414,0.954,0.316
	c0.583-0.396-0.37-1.457-0.976-1.686c-1.042-0.395-4.374,0.509-7.309,3.432c0,0-1.446,1.195-3.08,3.795
	c-0.191,0.17-2.358,4.555-2.523,5.221c-0.222,0.613-0.433,1.26-0.63,1.941c-2.207,7.631-3.192,13.671-3.219,16.583
	c-0.005,0.529-0.008,1.152-0.003,1.83c-5.953,9.008-9.034,11.717-9.982,11.072c-1.005-0.684-0.604-4.93,1.418-8.965
	c2.785-5.559,6.386-5.678,7.036-5.462c0.65,0.217,2.52-0.716,0.407-2.155c-4.307-2.936-8.564,0.695-8.564,0.695
	s-1.428,0.727-3.649,4.928c-2.222,4.203-2.864,8.95-1.26,11.977c1.507,2.844,5.847,3.07,9.038,0.103
	c2.465-2.293,4.611-6.022,5.674-8.049c0.113,1.971,0.321,3.823,0.699,4.858c0.79,2.168,3.9,5.361,7.67,2.678
	c2.036-1.45,3.231-4.469,3.899-6.939c0.489,0.908,1.187,1.643,2.092,2.153c3.157,1.782,6.347-1.546,7.488-3.315
	c1.373-2.13,2.503-4.474,3.403-6.671c-0.286,1.976-0.489,3.925-0.44,5.247c0.142,3.781,2.274,8.032,5.389,6.696
	c3.337-1.431,5.653-6.661,6.302-8.282h0.002c0,0,0.005-0.014,0.016-0.04c0.04-0.103,0.074-0.188,0.1-0.257
	c0.549-1.404,2.916-7.475,4.404-11.476c0.583,2.343,2.613,5.593,4.24,8.462c-0.166,0.289-0.322,0.578-0.464,0.865
	c-2.701,5.491-3.263,8.141-2.134,11.281c0.901,2.508,4.275,3.619,7.481,1.646c0.001,0,0.002,0,0.003-0.002
	c0.012-0.008,0.025-0.015,0.037-0.022c0.212-0.13,0.421-0.272,0.622-0.429c0,0,0.001-0.002,0.002-0.002
	c1.123-0.873,2.035-2.158,2.265-3.805c0.516-3.703-0.265-6.963-3.58-12.248c0.358-0.424,0.744-0.849,1.158-1.271
	c5.684-5.8,11.502-5.293,11.502-5.293S162.082,60.806,158.322,61.902 M146.798,84.437c-0.838,0.193-2.06,0.188-2.326-1.369
	c-0.183-1.071-0.09-4.053,1.533-7.592v0.002c1.914,3.812,2.051,6.236,2.092,7.211C148.146,83.81,147.4,84.257,146.798,84.437"/>
<path fill="#FFFFFF" d="M165.378,113.674c-0.027-0.089-0.053-0.171-0.076-0.247c-1.196-3.905-1.431-11.436-1.52-14.27
	c-0.012-0.391-0.021-0.688-0.029-0.873c-0.076-1.645-0.633-2.791-1.565-3.225c-0.235-0.109-0.55-0.173-0.908-0.186
	c-0.997-0.035-2.319,0.334-3.04,1.476c-0.041,0.065-0.084,0.13-0.127,0.194c-0.188,0.281-0.4,0.602-0.48,1.006
	c-0.021,0.107-0.045,0.215-0.066,0.322c-0.12,0.582-0.245,1.184-0.256,1.815c-0.014,0.757-0.203,3.38-0.266,3.892
	c-0.007,0.056-0.019,0.164-0.033,0.317c-0.746,7.22-1.728,9.349-2.246,9.974c-0.075,0.094-0.403,0.322-0.725,0.31
	c-0.726-0.024-1.175-1.36-1.199-3.573c0-0.07-0.153-7.049-0.938-8.357c-0.091-0.151-0.576-0.92-1.197-1.157
	c-0.571-0.22-1.188-0.343-1.831-0.364c-0.49-0.018-0.996,0.021-1.545,0.117c-0.182,0.029-0.273,0.161-0.306,0.21l-0.147,0.175
	l0.09,0.227c0.356,0.899,0.473,1.408,0.539,2.365c0.051,0.758-0.01,6.17-0.059,7.943c-0.061,2.189,0.455,4.049,1.529,5.525
	c1.152,1.582,3.293,2.216,4.451,2.256c0.187,0.006,0.353-0.002,0.492-0.026c1.662-0.276,3.022-1.289,3.53-1.901
	c1.392-1.678,1.974-5.231,2.291-7.355c0.483,4.247,1.563,7.148,3.216,8.641c1.398,1.26,3.036,1.379,3.352,1.389
	c0.062,0.004,0.101,0.002,0.125,0.002c1.098,0.01,1.832-0.561,1.926-0.78l0.117-0.276l-0.228-0.195
	C166.565,117.604,165.792,115.047,165.378,113.674"/>
<path fill="#FFFFFF" d="M153.994,123.278l-0.488-0.033l0.055,0.486c0.123,1.11-0.3,2.781-0.4,3.015
	c-0.635,1.086-1.216,1.636-2.142,2.026c-0.233,0.098-0.563,0.145-0.931,0.133c-2.377-0.084-5.457-2.385-6.312-8.598
	c-0.286-2.084-0.129-8.59,0.103-9.635l0.004-0.021l0.003-0.022c0.118-1.089,0.456-2.735,0.813-4.479
	c0.662-3.224,1.412-6.877,1.215-8.957c-0.117-1.213-1.351-3.496-3.396-3.725l-0.1-0.011c-0.278-0.032-0.594-0.067-0.935-0.079
	c-0.806-0.027-2.044,0.053-3.481,1.064c-1.479,1.041-2.887,2.845-4.301,5.511c-0.632,1.188-3.689,7.354-3.991,8.044
	c-0.066,0.15-0.206,0.484-0.368,0.873c-0.064,0.152-0.139,0.333-0.219,0.523c0.002-3.383-0.032-6.455-0.423-7.244
	c-0.809-1.631-1.848-2.023-3.227-2.401c-0.123-0.033-0.298-0.056-0.518-0.062c-1.155-0.041-3.486,0.275-4.049,1.76
	c-0.042,0.111-0.098,0.393,0.309,0.57c0.911,0.396,1.486,1.285,1.711,2.643c0.068,0.41-0.015,1.693-0.111,3.176
	c-0.43,6.648-0.617,13.229,2.173,14.301c0.353,0.137,0.722,0.213,1.095,0.225c1.224,0.043,2.126-0.582,2.295-0.709
	c0.419-0.295,0.752-1.185,1.18-3.164c0.017-0.075,0.031-0.141,0.042-0.19c0.223-0.989,1.069-3.876,1.838-5.969
	c0.565-1.541,5.185-11.642,5.615-12.281c0.022-0.032,0.046-0.069,0.073-0.108c0.234-0.356,0.785-1.188,1.345-1.373
	c0.092-0.031,0.151-0.037,0.185-0.035c0.045,0.002,0.059,0.013,0.077,0.037c0.36,0.457-0.054,2.518-0.276,3.625
	c-0.09,0.447-0.168,0.834-0.213,1.145c-0.102,0.684-0.213,1.378-0.322,2.051c-0.092,0.577-0.188,1.174-0.276,1.762
	c-0.097,0.639-0.371,3.838-0.392,4.832c-0.157,7.742,2.056,13.584,6.576,17.365c1.664,1.391,3.504,2.129,5.475,2.198
	c3.146,0.108,5.792-1.55,6.492-2.789c0.772-1.368,0.863-2.944,0.234-4.112C155.594,123.834,154.852,123.337,153.994,123.278"/>
<path fill="#FFFFFF" d="M256.554,93.771c-0.595-0.021-1.279,0.077-2.036,0.293c-1.683,0.477-3.888,1.965-6.554,4.422
	c-1.557,1.436-2.822,2.799-3.297,3.321l-0.111-0.219c-0.353-0.696-2.924-5.501-4.459-8.372c-0.687-1.281-1.229-2.294-1.254-2.346
	c-0.537-1.073-1.024-3.114-0.781-5.627c0.027-0.281,0.083-0.557,0.143-0.851c0.043-0.21,0.086-0.427,0.118-0.646
	c0.076-0.521-0.228-1.312-0.999-1.443c-0.154-0.027-0.314-0.043-0.48-0.049c-1.912-0.066-3.941,1.279-4.426,1.751
	c-0.519,0.504-0.717,1.579-0.684,2.42c0.036,0.899,0.861,4.138,1.158,4.938c0.128,0.346,0.242,0.855,0.277,1.019
	c-0.031,0.103-0.094,0.323-0.217,0.763c-0.381,1.368-1.176,4.215-1.746,5.736c-0.089,0.236-1.4,3.279-2.084,4.781
	c-0.1,0.217-1.238,2.322-1.822,3.057c-0.266,0.335-0.519,0.516-0.711,0.51c-0.353-0.013-0.608-0.676-0.652-1.31
	c-0.115-1.63,0.333-5.034,1.331-10.117c0.042-0.21,0.071-0.364,0.088-0.453c0.012-0.062,0.037-0.179,0.073-0.344
	c0.99-4.539,1.117-7.269,0.387-8.343c-0.385-0.564-0.973-0.868-1.749-0.901l-0.065-0.003c-2.509-0.087-4.168,1.119-6.342,4.607
	c-0.32,0.515-7.964,15.787-8.334,16.797c-0.07,0.191-0.203,0.465-0.333,0.729c-0.044,0.089-0.087,0.177-0.127,0.261
	c-0.026-0.178-0.039-0.363-0.036-0.545c0.021-1.172,0.252-11.479,0.287-12.517c0.044-1.256-0.1-2.563-1.498-2.737
	c-0.119-0.016-0.238-0.025-0.352-0.029c-1.281-0.045-2.155,0.592-2.922,2.125c-0.481,0.963-6.274,16.596-6.562,17.381
	c-0.513,1.4-2.159,5.023-3.604,4.974c-0.166-0.005-0.324-0.062-0.482-0.169c-0.007-0.006-1.574-1.523-1.977-4.098
	c-0.25-1.604-0.344-4.192-0.211-5.895c0.035-0.441,0.231-0.736,0.604-0.9c1.201-0.528,2.14-1.428,2.974-2.32
	c1.344-1.439,2.226-2.986,2.621-4.6c0.807-3.283-0.007-4.5-0.354-5.02c-0.028-0.042-0.053-0.079-0.073-0.111
	c-0.479-0.795-1.545-1.123-2.104-1.142c-0.043-0.002-0.084-0.001-0.121,0.001c-4.965,0.299-6.467,3.316-6.621,3.659
	c-1.903,4.217-3.032,7.163-2.301,14.28c0.558,5.414,4.24,8.445,6.43,9.084c0.346,0.102,0.711,0.16,1.084,0.172
	c1.693,0.059,3.104-0.795,3.37-0.967c2.243-1.449,4.603-7.903,5.87-11.371c0.179-0.485,0.351-0.957,0.49-1.32
	c0.012,0.277,0.023,0.605,0.035,0.939c0.057,1.51,0.135,3.576,0.227,4.362c0.131,1.103,0.294,2.274,0.726,3.431
	c0.321,0.854,0.908,1.459,1.571,1.619c0.253,0.059,0.499,0.094,0.73,0.103c2.157,0.075,2.889-2.067,3.476-3.788
	c0.147-0.43,0.284-0.835,0.433-1.168c0.23-0.518,0.459-1.038,0.686-1.557c0.317-0.724,0.646-1.472,0.977-2.203
	c0.559-1.232,4.166-8.602,5.9-12.143c0.55-1.123,0.912-1.865,0.972-1.988c0.245-0.513,0.519-0.854,0.774-0.967
	c0.024,0.006,0.058,0.02,0.086,0.034c-0.141,0.804-0.789,4.761-0.957,6.365c-0.785,7.479,0.318,9.551,2.774,10.933
	c0.474,0.266,1.039,0.418,1.638,0.438c2.172,0.076,4.264-1.471,5.594-4.137c1.212-2.174,3.449-8.553,4.029-10.23
	c0.277,0.455,0.778,1.309,1.235,2.086c0.703,1.195,1.5,2.55,1.903,3.188c0.604,0.957,2.488,4.08,2.871,4.715
	c-1.826,2.646-2.799,5.053-2.973,7.354c-0.06,0.767-0.045,1.236,0.188,1.83c0.272,0.694,0.692,1.263,1.247,1.692
	c0.829,0.639,1.77,0.982,2.798,1.017c2.36,0.082,4.426-1.472,4.685-1.883c1.273-2.013,1.646-4.369,1.078-6.813
	c-0.009-0.037-0.016-0.065-0.02-0.088c-0.105-0.5-0.698-1.867-1.221-3.072c-0.293-0.674-0.57-1.314-0.693-1.646
	c0.179-0.343,0.896-1.705,1.246-2.212c0.881-1.28,4.333-5.237,7.076-5.981c0.178-0.049,0.352-0.07,0.518-0.064
	c0.876,0.031,1.596,0.802,2.139,2.293c0.052,0.141,0.065,0.178,0.118,0.22l0.124,0.097l0.125-0.096
	c0.367-0.279,1.563-1.271,1.557-2.277C259.036,94.313,257.685,93.809,256.554,93.771 M243.3,113.206
	c-0.232,1.131-0.658,2.066-1.061,2.33c-0.16,0.105-0.402,0.265-0.585,0.258c-0.043-0.001-0.082-0.012-0.118-0.032
	c-0.703-0.392-0.424-1.565-0.273-2.196c0.367-1.541,0.932-3.004,1.676-4.351c0.01-0.019,0.027-0.038,0.05-0.06
	c0.121,0.121,0.174,0.283,0.233,0.465C243.539,110.595,243.568,111.901,243.3,113.206 M194.171,102.149
	c0.269-1.178,0.686-2.287,1.097-3.313c0.266-0.662,0.554-1.33,0.833-1.976l0.168-0.389c0.074-0.169,0.141-0.307,0.256-0.408
	c0.048,0.129,0.089,0.326,0.082,0.688c-0.023,1.285-0.455,2.636-1.357,4.25C194.984,101.477,194.628,101.854,194.171,102.149"/>
<path fill="#FFFFFF" d="M185.124,97.136c0.077-0.021,2.881-0.527,5.593-2.736c1.309-1.066,2.157-2.529,2.475-3.16
	c0.623-1.244,0.859-2.59,0.73-3.99c-0.074-0.803-0.292-1.561-0.854-2.145c-0.343-0.357-1.486-1.15-2.772-0.797
	c-0.642,0.178-0.911,0.48-1.228,1.171c0.056,0.046,3.856,1.288,2.888,4.99c-0.831,3.171-3.222,3.185-4.202,3.325
	c-0.801,0.117-2.59,0.154-2.936,0.133c-0.263-0.016-0.485-0.15-0.584-0.385c-1.078-2.6-2.867-3.666-3.594-3.852
	c-0.955-0.246-1.766-0.312-2.66,0.314c-0.97,0.678-1.849,2.188-1.668,3.566c0.356,2.699,3.713,3.512,3.713,3.512
	c0.236,0.979,0.149,2.504,0.123,3.5c-0.015,0.592-0.525,5.943-0.629,6.604c-0.059,0.369-1.197,9.751-3.729,9.497
	c-0.771-0.078-1.247-1.4-1.465-1.943c-0.478-1.199-1.588-7.037-1.652-8.51c-0.047-1.072-0.301-7.826-0.157-8.826
	c0.122-0.847,0.108-2.336-0.589-2.785c-2.197-1.418-3.607,0.102-4.041,0.488c-0.457,0.408-1.77,2.668-1.459,6.008
	c0.143,1.524,0.705,3.896,0.283,4.836c-0.18,0.399,0.374,0.689,1.54-0.262c0,0,0.429,3.586,1.258,5.93
	c0.746,2.109,2.071,4.317,2.521,4.887c0.938,1.188,1.818,1.725,2.66,1.877c2.532,0.456,5.157-0.139,6.582-2.012
	c2.92-3.84,3.397-9.328,3.547-10.574c0.111-0.916,0.354-7.45,0.304-7.985L185.124,97.136z M178.117,93.021
	c-0.047-0.135-0.026-0.323,0.031-0.458c0.06-0.143,0.359-0.044,0.496,0.188c0.168,0.287,0.307,0.591,0.547,1.058
	C178.469,93.776,178.257,93.425,178.117,93.021"/>
<path fill="#FFFFFF" d="M46.941,40.827c-0.126-1.247-0.939-1.689-1.597-1.689c-0.639,0-1.181,0.391-1.287,0.93
	c-0.05,0.251-0.03,0.596-0.007,0.996c0.049,0.856,0.111,1.922-0.47,2.537c-0.335,0.355-0.848,0.527-1.569,0.527
	c-0.046,0-0.093,0-0.14-0.002c-0.479-0.014-0.885-0.227-1.241-0.651c-2.212-2.63-1.606-12.489-1.265-14.872
	c0.104-0.732,0.283-2.012,0.668-3.513c1.331-5.187,2.627-9.404,1.157-10.846c-0.528-0.519-1.194-0.782-1.981-0.782
	c-1.859,0-4.066,1.503-5.287,2.988l-0.002,0.004l-0.003,0.002c-2.027,2.061-2.853,4.858-4.268,7.768
	c-0.171,0.352-0.129,0.701-0.299,1.047c-0.956,1.944-2.095,5.793-2.913,8.625c-0.619,2.146-1.42,4.183-1.939,5.404
	c-0.097-1.326-0.043-4.486,0.351-8.302c0.404-3.913,0.786-7.609,0.746-9.069c-0.058-2.116-0.791-3.189-2.18-3.189
	c-0.332,0-0.638,0.059-0.883,0.107l-0.062,0.011c-0.013,0.003-0.027,0.006-0.04,0.01h-0.001c-4.912,0.516-8.303,7.406-8.504,7.847
	c-1.115,1.977-2.397,5.109-3.689,8.612c0.712-2.795,1.355-5.498,1.613-6.595c0.611-2.587,0.656-5.674-0.619-6.736
	c-0.944-0.786-2.387-1.255-3.86-1.256c-1.443,0-3.577,0.444-5.551,2.558c-2.348,2.515-1.868,4.476-1.552,5.202
	c0.362,0.834,1.07,1.395,1.762,1.395c0.104,0,0.207-0.013,0.305-0.039c0.6-0.157,1.005-0.419,1.204-0.779
	c0.202-0.365,0.11-0.688,0.099-0.723L3.62,28.3l-0.041-0.038c-0.034-0.034-0.868-0.871-0.091-2.597
	c0.563-1.255,1.522-2.237,2.181-2.237c0.277,0,0.495,0.186,0.647,0.555c0.606,1.464-0.226,5.856-0.862,7.903
	c-0.493,1.588-2.855,10.496-2.181,14.511c0.454,2.705,1.523,4.256,2.933,4.256c0.466,0,0.93-0.177,1.379-0.525
	c0.178-0.139,0.812-1.785,1.883-4.893c0.051-0.15,4.638-13.463,7.495-19.293c0.777-1.587,1.688-2.782,2.709-3.559
	c0.058,1.201-0.131,3.178-0.56,5.887c-1.116,7.032-1.579,14.476,0.525,17.087c0.384,0.476,0.857,0.733,1.407,0.764
	c0.082,0.005,0.163,0.007,0.244,0.007c2.727,0,4.387-2.667,4.974-3.814l0.006-0.012l0.001-0.002
	c0.203-0.398,0.306-0.663,0.311-0.675l0.01-0.028l0.003-0.03l0.001-0.014c0.41-0.953,1.042-2.912,1.84-5.385
	c1.474-4.571,3.068-11.256,4.848-14.553c1.079-1.998,0.951-2.268,1.914-3.04c0.004,0.237-1.881,9.584-2.145,13.283
	c-0.438,6.132-0.043,13.774,5.298,15.158c0.577,0.15,1.149,0.226,1.702,0.226c1.685,0,4.117-1.361,5.306-2.675
	C46.396,43.418,47.047,41.88,46.941,40.827"/>
<path fill="#FFFFFF" d="M135.986,5.373c-3.461-4.774-8.231-1.062-7.913,0.106c0.319,1.169,2.018,0.266,2.018,0.266
	s4.566-1.381,4.885,9.081c0.191,6.274-1.699,13.328-7.128,16.468c-6.529,3.976-12.268-5.229-13.478-11.106
	c-1.255-6.101-0.828-9.14-1.239-12.72c-0.257-2.241-2.511-2.363-3.882-2.17l-0.003-0.043c0,0-0.268-0.016-0.655,0.157
	c-0.024,0.005-0.04,0.009-0.04,0.009v0.008c-0.529,0.249-1.265,0.848-1.853,2.289c-0.899,2.202-3.01,11.914-4.306,14.304
	c-1.136,2.097-1.986,2.468-2.951,2.592c-0.444-0.113-0.937-0.394-1.193-1.063c-0.734-1.914-0.153-7.515,2.241-12.464
	c2.539-5.249,5.588-2.965,5.958-4.961c0.269-1.453-1.803-2.434-4.572-1.74c-0.013,0.002-0.021,0.003-0.021,0.003
	s-0.055,0.014-0.154,0.041c-0.026,0.007-0.051,0.014-0.076,0.022c-1.296,0.365-7.893,2.404-13.983,7.578
	c-1.111-1.779-2.979-3.075-6.117-2.582l-0.009,0.021c-3.792,0.993-5.717,6.922-5.778,7.162c-0.041-3.826-0.45-7.224-0.45-7.224
	c-1.752-0.647-2.819-0.647-3.472-0.381l-0.001-0.024c0,0-2.209-0.722-3.583,10.343c-0.892,7.195-3.793,12.166-5.449,13.175
	l-0.009-0.022c-4.481-0.099,0.4-14.049-0.723-16.234c-0.706-1.373-2.369-1.145-3.981-0.261c-1.671,0.917-2.472,4.287-2.531,4.394
	c-0.129,0.599-2.664,10.285-5.377,12.453c-0.513,0.074-1.035-0.195-1.16-1.496c-0.263-2.736,0.376-11.307,6.493-14.758
	c0,0,2.522-1.175,2.87-2.009c0.371-0.747-1.048-1.582-3.401-1.33c-3.684,0.396-6.435,1.797-8.917,6.011
	c-2.481,4.215-3.23,7.244-2.137,12.562c1.093,5.317,5.844,4.536,7.421,3.212c0,0,2.313-1.613,4.118-7.809
	c1.493-5.127,2.085-7.17,2.085-7.17s-2.227,8.699-0.893,12.545c1.788,5.156,6.965,2.123,6.965,2.123
	c1.924-0.875,5.336-8.29,5.909-11.491c0.1,3.587-0.206,11.088-0.569,16.94c-3.355,1.435-6.403,3.205-8.862,5.358
	c-6.337,5.547-3.488,15.343,3.248,13.84c7.232-1.613,8.397-9.398,8.409-9.48c0.724-2.448,1.28-5.487,1.673-8.156
	c2.829-0.726,5.649-1.17,8.109-1.538c8.221-1.23,24.576-0.044,24.576-0.044c-0.776-4.706-4.518-4.873-4.518-4.873
	c-6.621-0.739-17.84-0.026-27.727,3.088c0.076-0.667,0.137-1.254,0.181-1.732c0.394-4.194,0.615-10.49,1.262-13.089
	c0.709-2.853,3.021-11.806,6.095-10.256c0.838,0.423,1.274,1.895,1.42,3.8c-1.858,2.436-3.462,5.296-4.569,8.644
	c-0.399,1.207-0.534,2.208-0.501,3.036c-0.06,0.678,0.226,1.968,0.391,2.18c1.153,1.65,2.493,2.243,4.365,2.118
	c1.038-0.21,2.028-1.138,2.865-2.095c2.017-2.821,3.876-7.126,3.898-12.05c0,0,0.092-2.469-0.705-4.901
	c2.178-1.974,4.55-3.629,6.842-4.981c-1.312,1.95-2.285,4.822-2.734,7.713c0.06-0.752-0.257,2.181-0.223,1.952
	c-0.324,4.515,0.457,8.962,4.041,9.659c3.077,0.598,5.682-0.963,7.881-5.012c0.014-0.025,0.024-0.042,0.024-0.042l-0.001,0.001
	c1.703-2.972,2.945-9.852,2.947-9.842c0.423,5.055,0.76,15.121,8.917,20.048c8.425,5.09,15.598-2.232,15.598-2.232
	C138.216,25.551,138.906,9.401,135.986,5.373 M68.469,46.426c-0.164,1.599-1.488,6.877-2.907,10.176
	c-5.753,3.725-8.138-4.575-3.893-8.861c1.971-1.99,4.433-3.424,7.069-4.49C68.646,44.504,68.555,45.591,68.469,46.426 M80.08,29.875
	c-0.068,0.011-0.143,0.017-0.224,0.017c0.068-1.871,0.674-4.743,2.87-8.687c0.011-0.02,0.023-0.04,0.034-0.06
	C82.41,25.345,81.263,29.676,80.08,29.875"/>
</svg>
