<?xml version="1.0" encoding="utf-8"?>
<!-- Generator: Adobe Illustrator 16.0.0, SVG Export Plug-In . SVG Version: 6.00 Build 0)  -->
<!DOCTYPE svg PUBLIC "-//W3C//DTD SVG 1.1//EN" "http://www.w3.org/Graphics/SVG/1.1/DTD/svg11.dtd">
<svg version="1.1" id="Camada_1" xmlns="http://www.w3.org/2000/svg" xmlns:xlink="http://www.w3.org/1999/xlink" x="0px" y="0px"
	 width="400px" height="239.221px" viewBox="0 0 400 239.221" enable-background="new 0 0 400 239.221" xml:space="preserve">
<path fill="#FFFFFF" d="M359.403,20.762c-26.354-26.355-69.095-26.347-95.449,0.01c-26.354,26.355-26.354,69.085,0,95.439
	c26.354,26.357,69.095,26.368,95.449,0.009C385.756,89.865,385.756,47.119,359.403,20.762 M269.522,110.641
	c-23.28-23.28-23.289-61.026-0.008-84.309c23.281-23.281,61.026-23.273,84.311,0.009c23.28,23.281,23.28,61.02,0,84.3
	C330.54,133.927,292.804,133.927,269.522,110.641"/>
<path fill="#FFFFFF" d="M296.026,55.678l5.742,5.749c-0.186,4.891,0.106,8.683,0.013,14.149l-23.646,23.62
	C286.638,84.622,292.76,69.733,296.026,55.678 M294.845,51.67c-3.223,16.174-10.39,33.651-21.071,50.897
	c-0.645,1.031,0.22,2.106,1.175,2.106c0.324,0,0.659-0.124,0.95-0.414l27.356-27.357c-4.646-4.646-4.638-12.186,0-16.821
	L294.845,51.67L294.845,51.67z"/>
<path fill="#FFFFFF" d="M328.488,85.314l-8.41-8.411c4.646-4.646,4.646-12.177,0-16.821l27.365-27.366
	c1.148-1.147,2.987,0.312,2.125,1.693C338.884,51.653,331.718,69.131,328.488,85.314"/>
<path fill="#FFFFFF" d="M311.666,68.493l-8.601,8.599c-4.749-4.75-4.74-12.456,0-17.197L311.666,68.493z"/>
<path fill="#FFFFFF" d="M326.749,68.316c0,2.239-2.337,6.972-3.583,8.776l-8.652-8.598l8.36-8.304
	C322.874,60.192,326.749,66.077,326.749,68.316z M311.686,68.495l9.136,9.137c5.051-5.047,5.051-13.228,0-18.273L311.686,68.495z"/>
<path fill="#FFFFFF" d="M76.031,98.025c-0.192-1.914-1.44-2.592-2.451-2.592c-0.98,0-1.811,0.601-1.975,1.428
	c-0.077,0.385-0.045,0.915-0.01,1.528c0.076,1.313,0.17,2.949-0.721,3.893c-0.514,0.544-1.302,0.809-2.409,0.809
	c-0.07,0-0.141,0-0.215-0.003c-0.734-0.022-1.357-0.35-1.903-0.999c-3.394-4.036-2.463-19.164-1.942-22.82
	c0.161-1.124,0.436-3.087,1.026-5.391c2.042-7.96,4.03-14.429,1.774-16.643c-0.809-0.796-1.833-1.198-3.039-1.198h0
	c-2.852,0-6.24,2.306-8.112,4.584l-0.004,0.005l-0.003,0.005c-3.111,3.161-4.378,7.453-6.55,11.919
	c-0.262,0.539-0.197,1.075-0.458,1.605c-1.467,2.984-3.215,8.889-4.471,13.235c-0.95,3.292-2.178,6.417-2.975,8.292
	c-0.149-2.034-0.065-6.883,0.54-12.739c0.619-6.005,1.205-11.676,1.144-13.916c-0.089-3.247-1.214-4.894-3.345-4.894
	c-0.51,0-0.979,0.091-1.356,0.164l-0.095,0.018c-0.02,0.004-0.042,0.009-0.061,0.014H38.42c-7.538,0.792-12.741,11.365-13.05,12.041
	c-1.711,3.035-3.678,7.84-5.66,13.214c1.091-4.288,2.078-8.435,2.475-10.118c0.938-3.971,1.007-8.707-0.95-10.337
	c-1.449-1.206-3.663-1.926-5.922-1.926c-2.214,0-5.49,0.681-8.517,3.925c-3.604,3.858-2.868,6.867-2.383,7.982
	c0.556,1.279,1.643,2.14,2.705,2.14c0.16,0,0.318-0.02,0.468-0.06c0.92-0.241,1.542-0.644,1.846-1.196
	c0.31-0.56,0.169-1.054,0.152-1.108l-0.026-0.082l-0.062-0.058c-0.052-0.052-1.332-1.336-0.141-3.985
	c0.865-1.926,2.335-3.433,3.347-3.433c0.425,0,0.759,0.287,0.993,0.852c0.929,2.248-0.348,8.986-1.323,12.127
	c-0.756,2.437-4.38,16.105-3.346,22.264c0.697,4.153,2.337,6.534,4.5,6.534c0.716,0,1.428-0.271,2.116-0.807
	c0.274-0.213,1.246-2.74,2.889-7.509c0.078-0.229,7.117-20.658,11.501-29.604c1.192-2.435,2.589-4.269,4.157-5.461
	c0.087,1.844-0.201,4.876-0.86,9.033c-1.712,10.792-2.423,22.213,0.807,26.219c0.588,0.73,1.314,1.125,2.158,1.172
	c0.126,0.007,0.25,0.011,0.373,0.011c4.186,0,6.732-4.092,7.634-5.852l0.01-0.018l0.001-0.003c0.312-0.611,0.47-1.019,0.477-1.036
	l0.017-0.044l0.004-0.046l0.001-0.022c0.63-1.46,1.599-4.466,2.822-8.261c2.263-7.014,4.708-17.272,7.44-22.331
	c1.655-3.066,1.459-3.479,2.937-4.665c0.006,0.364-2.887,14.706-3.292,20.381c-0.671,9.411-0.065,21.136,8.129,23.26
	c0.885,0.229,1.765,0.346,2.612,0.346c2.585,0,6.318-2.088,8.142-4.105C75.194,102.003,76.194,99.642,76.031,98.025"/>
<path fill="#FFFFFF" d="M212.682,43.624c-5.311-7.326-12.631-1.63-12.141,0.163c0.488,1.792,3.095,0.407,3.095,0.407
	s7.008-2.119,7.497,13.934c0.294,9.627-2.608,20.452-10.939,25.27c-10.021,6.101-18.831-8.024-20.687-17.042
	c-1.927-9.362-1.273-14.025-1.904-19.518c-0.395-3.439-3.855-3.625-5.959-3.33l-0.005-0.066c0,0-0.411-0.024-1.005,0.241
	c-0.038,0.008-0.061,0.014-0.061,0.014v0.014c-0.813,0.381-1.943,1.3-2.846,3.511c-1.379,3.38-4.62,18.282-6.609,21.949
	c-1.744,3.217-3.048,3.788-4.529,3.977c-0.682-0.173-1.438-0.605-1.832-1.631c-1.125-2.938-0.234-11.532,3.439-19.125
	c3.897-8.054,8.577-4.55,9.145-7.612c0.414-2.23-2.767-3.735-7.017-2.669c-0.021,0.002-0.033,0.004-0.033,0.004
	s-0.083,0.021-0.236,0.063c-0.039,0.011-0.077,0.022-0.116,0.033c-1.989,0.561-12.111,3.689-21.456,11.628
	c-1.705-2.73-4.571-4.718-9.387-3.962l-0.014,0.032c-5.818,1.524-8.772,10.621-8.866,10.99c-0.062-5.869-0.69-11.085-0.69-11.085
	c-2.688-0.993-4.326-0.991-5.327-0.584l-0.001-0.037c0,0-3.39-1.108-5.498,15.871c-1.37,11.04-5.821,18.667-8.363,20.215
	l-0.013-0.033c-6.875-0.152,0.615-21.558-1.109-24.911c-1.083-2.106-3.635-1.757-6.109-0.4c-2.564,1.408-3.793,6.578-3.884,6.743
	c-0.196,0.919-4.086,15.782-8.25,19.108c-0.787,0.114-1.587-0.299-1.78-2.295c-0.403-4.199,0.577-17.351,9.964-22.646
	c0,0,3.869-1.802,4.403-3.082c0.57-1.147-1.607-2.428-5.218-2.041c-5.654,0.607-9.875,2.756-13.683,9.223
	c-3.808,6.468-4.957,11.116-3.279,19.275c1.677,8.159,8.968,6.96,11.387,4.928c0,0,3.549-2.474,6.319-11.981
	c2.291-7.867,3.2-11.002,3.2-11.002s-3.418,13.349-1.37,19.25c2.744,7.911,10.687,3.258,10.687,3.258
	c2.953-1.344,8.188-12.722,9.067-17.633c0.153,5.505-0.316,17.014-0.872,25.995c-5.149,2.201-9.826,4.918-13.6,8.22
	c-9.723,8.515-5.352,23.557,4.985,21.249c11.097-2.477,12.884-14.432,12.902-14.557c1.111-3.758,1.965-8.419,2.567-12.516
	c4.341-1.113,8.668-1.796,12.443-2.36c12.615-1.886,37.713-0.066,37.713-0.066c-1.192-7.222-6.934-7.479-6.934-7.479
	c-10.161-1.134-27.375-0.04-42.547,4.74c0.118-1.024,0.211-1.925,0.279-2.657c0.604-6.436,0.943-16.098,1.936-20.085
	c1.088-4.377,4.635-18.115,9.353-15.737c1.286,0.648,1.956,2.907,2.179,5.832c-2.852,3.737-5.312,8.126-7.01,13.263
	c-0.612,1.852-0.819,3.388-0.77,4.658c-0.091,1.04,0.347,3.019,0.6,3.346c1.77,2.531,3.826,3.441,6.698,3.25
	c1.591-0.323,3.112-1.747,4.395-3.215c3.097-4.329,5.949-10.934,5.982-18.49c0,0,0.142-3.788-1.082-7.521
	c3.343-3.029,6.981-5.568,10.5-7.643c-2.014,2.993-3.507,7.399-4.196,11.834c0.093-1.153-0.395,3.347-0.343,2.996
	c-0.496,6.928,0.702,13.752,6.201,14.82c4.722,0.918,8.719-1.478,12.094-7.689c0.022-0.039,0.037-0.064,0.037-0.064l-0.002,0
	c2.615-4.56,4.522-15.118,4.523-15.101c0.651,7.755,1.168,23.202,13.69,30.762c12.934,7.81,23.943-3.425,23.943-3.425
	C216.104,74.587,217.163,49.807,212.682,43.624 M109.064,106.618c-0.25,2.453-2.282,10.555-4.46,15.623
	c-8.827,5.719-12.487-7.026-5.974-13.606c3.025-3.054,6.804-5.254,10.848-6.888C109.337,103.669,109.196,105.337,109.064,106.618
	 M126.88,81.22c-0.104,0.017-0.219,0.026-0.344,0.025c0.104-2.87,1.034-7.277,4.404-13.329c0.017-0.031,0.036-0.061,0.052-0.092
	C130.457,74.271,128.697,80.916,126.88,81.22"/>
<path fill="#FFFFFF" d="M239.892,130.003c-3.662,1.068-9.796,5.237-14.531,10.269c-0.005-0.007-0.008-0.014-0.013-0.021
	c-5.758-8.613-4.325-13.893-3.735-17.066c0.59-3.174-3.057-4.622-5.374-2.118c-2.313,2.504-3.01,9.258-3.01,9.258l-7.121,18.799
	l0.03,0.019c-1.301,3.102-5.67,12.99-7.298,9.975c-1.923-3.561,1.454-16.886,2.042-20.887c0.655-4.464,0.063-5.915-2.649-6.115
	c-1.336-0.099-2.33,0.655-2.996,1.447c-0.686,0.817-1.022,1.673-1.022,1.673s-0.044,0.199-0.119,0.557l-4.606,8.994
	c0,0-6.43,13.69-8.811,12.092c0,0-1.461-2.893-0.148-8.692c0.875-3.867,3.83-9.973,7.687-11.464
	c2.492-0.965,3.803-0.576,4.017-1.622c0.212-1.045-3.245-4.523-7.067-3.392s-8.126,4.917-10.949,12.127
	c-1.249,3.193-1.76,6.227-1.556,8.841c-1.47,4.397-4.54,13.517-5.354,15.45c-1.084,2.568-1.692,0.609-1.692,0.609
	s-1.757-6.131-1.014-16.337s4.313-15.925,3.499-24.441c-0.475-4.936-5.112-5.472-8.72-3.32c-7.587,4.527-14.77,26.339-14.77,26.339
	c-0.22-7.065,0.824-14.111-6.572-14.277c-5.049-0.112-3.301,3.136-2.616,3.655c0.656,0.498,0.92,1.422,1.04,1.964
	c0.382,1.717,0,5.127,0,7.034c0,4.477-0.283,6.687-0.047,8.163c1.213,7.588,8.905,5.75,9.655,2.552
	c8.307-35.415,13.779-32.259,14.55-31.786c1.004,0.613-1.073,2.324-3.384,13.959c-4.417,22.232-2.69,28.05,0.537,30.447
	c1.247,0.927,7.572,4.294,10.818-0.437c1.915-2.792,3.991-9.808,5.374-15.099c0.69,1.19,1.631,2.167,2.844,2.851
	c4.491,2.535,9.027-2.197,10.65-4.711c1.954-3.028,3.561-6.362,4.839-9.484c-0.405,2.809-0.694,5.578-0.624,7.46
	c0.201,5.375,3.233,11.418,7.663,9.519c4.743-2.034,8.036-9.47,8.961-11.774h0.001c0,0,0.008-0.02,0.021-0.058
	c0.059-0.144,0.105-0.267,0.144-0.365c0.779-1.996,4.146-10.625,6.26-16.318c0.829,3.336,3.714,7.956,6.028,12.035
	c-0.237,0.411-0.458,0.821-0.659,1.23c-3.84,7.807-4.638,11.573-3.033,16.038c1.281,3.563,6.078,5.145,10.635,2.341
	c0.001-0.001,0.003-0.001,0.005-0.004c0.018-0.01,0.036-0.021,0.053-0.032c0.301-0.184,0.599-0.386,0.884-0.61
	c0.001,0,0.001,0,0.003,0c1.595-1.241,2.892-3.07,3.219-5.41c0.733-5.263-0.375-9.899-5.09-17.412
	c0.513-0.603,1.058-1.207,1.646-1.808c8.08-8.252,16.354-7.53,16.354-7.53S245.238,128.445,239.892,130.003 M223.509,162.045
	c-1.19,0.276-2.929,0.268-3.308-1.945c-0.258-1.523-0.126-5.762,2.178-10.794c0,0.001,0.001,0.003,0.001,0.003
	c2.722,5.421,2.914,8.867,2.976,10.253C225.424,161.154,224.364,161.79,223.509,162.045"/>
<path fill="#FFFFFF" d="M254.808,207.164c-0.041-0.132-0.078-0.256-0.113-0.372c-1.797-5.858-2.147-17.154-2.28-21.408
	c-0.019-0.583-0.03-1.03-0.045-1.307c-0.113-2.469-0.947-4.187-2.348-4.837c-0.352-0.165-0.824-0.262-1.362-0.28
	c-1.495-0.052-3.48,0.503-4.561,2.214c-0.062,0.1-0.127,0.196-0.19,0.292c-0.281,0.424-0.6,0.902-0.721,1.508
	c-0.033,0.162-0.065,0.323-0.101,0.484c-0.181,0.873-0.368,1.776-0.384,2.724c-0.019,1.135-0.304,5.07-0.397,5.84
	c-0.01,0.083-0.026,0.246-0.052,0.475c-1.118,10.831-2.589,14.024-3.367,14.964c-0.113,0.139-0.606,0.479-1.087,0.464
	c-1.09-0.038-1.762-2.043-1.799-5.361c-0.001-0.104-0.23-10.574-1.409-12.538c-0.137-0.227-0.864-1.378-1.795-1.735
	c-0.858-0.33-1.782-0.514-2.746-0.547c-0.736-0.026-1.494,0.032-2.318,0.175c-0.273,0.045-0.411,0.242-0.459,0.316l-0.222,0.262
	l0.137,0.342c0.533,1.349,0.706,2.11,0.806,3.545c0.078,1.138-0.014,9.258-0.087,11.918c-0.091,3.286,0.683,6.074,2.296,8.29
	c1.728,2.372,4.938,3.323,6.676,3.382c0.28,0.01,0.53-0.003,0.739-0.037c2.494-0.415,4.533-1.935,5.296-2.854
	c2.087-2.517,2.961-7.848,3.437-11.033c0.726,6.372,2.345,10.723,4.825,12.961c2.096,1.893,4.554,2.069,5.025,2.086
	c0.094,0.003,0.152,0.002,0.19,0c1.646,0.017,2.746-0.839,2.888-1.168l0.178-0.416l-0.344-0.293
	C256.588,213.06,255.43,209.224,254.808,207.164"/>
<path fill="#FFFFFF" d="M237.73,221.573l-0.732-0.051l0.081,0.73c0.185,1.667-0.449,4.172-0.603,4.522
	c-0.95,1.629-1.822,2.453-3.21,3.039c-0.352,0.147-0.848,0.219-1.396,0.199c-3.566-0.124-8.187-3.575-9.469-12.897
	c-0.431-3.125-0.194-12.885,0.151-14.453l0.008-0.033l0.002-0.032c0.179-1.635,0.687-4.104,1.223-6.721
	c0.994-4.836,2.12-10.316,1.821-13.438c-0.174-1.818-2.023-5.243-5.094-5.586l-0.151-0.017c-0.415-0.048-0.889-0.101-1.4-0.118
	c-1.209-0.042-3.067,0.077-5.223,1.596c-2.22,1.562-4.331,4.269-6.453,8.269c-0.948,1.784-5.536,11.031-5.987,12.067
	c-0.099,0.226-0.309,0.728-0.553,1.309c-0.094,0.229-0.208,0.5-0.33,0.787c0.005-5.076-0.047-9.687-0.634-10.869
	c-1.214-2.446-2.773-3.036-4.842-3.602c-0.184-0.052-0.446-0.082-0.778-0.094c-1.732-0.061-5.232,0.414-6.077,2.641
	c-0.064,0.168-0.147,0.589,0.465,0.855c1.366,0.595,2.23,1.928,2.568,3.963c0.103,0.618-0.022,2.541-0.167,4.767
	c-0.646,9.972-0.927,19.844,3.26,21.453c0.531,0.204,1.085,0.317,1.646,0.337c1.835,0.064,3.189-0.874,3.442-1.062
	c0.63-0.444,1.13-1.777,1.771-4.746c0.025-0.114,0.046-0.211,0.063-0.287c0.335-1.485,1.604-5.813,2.758-8.954
	c0.848-2.313,7.778-17.466,8.426-18.425c0.031-0.047,0.066-0.102,0.108-0.163c0.353-0.533,1.178-1.782,2.018-2.06
	c0.139-0.045,0.227-0.054,0.276-0.052c0.067,0.002,0.088,0.02,0.115,0.055c0.541,0.685-0.079,3.777-0.413,5.439
	c-0.137,0.671-0.253,1.25-0.322,1.716c-0.149,1.024-0.316,2.068-0.479,3.077c-0.139,0.866-0.284,1.763-0.417,2.645
	c-0.144,0.956-0.558,5.755-0.587,7.249c-0.237,11.614,3.083,20.378,9.866,26.049c2.493,2.086,5.256,3.195,8.213,3.297
	c4.718,0.165,8.687-2.324,9.737-4.183c1.159-2.055,1.295-4.419,0.351-6.17C240.13,222.408,239.017,221.66,237.73,221.573"/>
<path fill="#FFFFFF" d="M391.588,177.304c-0.89-0.031-1.919,0.117-3.055,0.44c-2.524,0.718-5.831,2.949-9.831,6.635
	c-2.335,2.153-4.234,4.198-4.945,4.982l-0.166-0.33c-0.529-1.042-4.388-8.25-6.691-12.558c-1.028-1.923-1.842-3.441-1.883-3.521
	c-0.805-1.608-1.535-4.669-1.17-8.438c0.04-0.422,0.125-0.837,0.213-1.277c0.064-0.315,0.132-0.642,0.178-0.967
	c0.115-0.782-0.341-1.969-1.498-2.167c-0.23-0.039-0.472-0.064-0.719-0.073h-0.002c-2.869-0.099-5.914,1.919-6.64,2.627
	c-0.777,0.757-1.075,2.369-1.025,3.632c0.054,1.35,1.292,6.204,1.737,7.405c0.191,0.522,0.364,1.285,0.417,1.529
	c-0.048,0.155-0.141,0.487-0.325,1.146c-0.572,2.052-1.766,6.324-2.62,8.605c-0.133,0.354-2.101,4.918-3.128,7.174
	c-0.148,0.322-1.855,3.483-2.731,4.583c-0.399,0.503-0.779,0.774-1.068,0.764c-0.528-0.019-0.911-1.013-0.978-1.962
	c-0.172-2.446,0.5-7.554,1.998-15.179c0.061-0.315,0.106-0.548,0.131-0.679c0.017-0.092,0.057-0.269,0.109-0.517
	c1.485-6.81,1.676-10.902,0.581-12.514c-0.578-0.848-1.46-1.304-2.626-1.354l-0.099-0.003c-3.762-0.132-6.25,1.676-9.511,6.909
	c-0.482,0.772-11.95,23.687-12.502,25.198c-0.106,0.287-0.308,0.698-0.502,1.097c-0.064,0.133-0.129,0.265-0.189,0.39
	c-0.041-0.267-0.06-0.543-0.053-0.818c0.031-1.756,0.375-17.22,0.429-18.776c0.067-1.884-0.148-3.844-2.246-4.105
	c-0.181-0.023-0.359-0.038-0.528-0.044c-1.922-0.067-3.233,0.887-4.384,3.187c-0.723,1.447-9.411,24.896-9.843,26.076
	c-0.769,2.101-3.24,7.536-5.407,7.461c-0.25-0.008-0.487-0.091-0.726-0.253c-0.01-0.011-2.358-2.288-2.965-6.148
	c-0.376-2.406-0.514-6.29-0.314-8.843c0.05-0.663,0.346-1.105,0.904-1.352c1.804-0.793,3.21-2.141,4.462-3.479
	c2.016-2.158,3.339-4.48,3.933-6.898c1.212-4.928-0.009-6.753-0.53-7.534c-0.042-0.062-0.08-0.117-0.109-0.166
	c-0.722-1.192-2.319-1.684-3.155-1.713c-0.068-0.002-0.128-0.001-0.183,0.001c-7.45,0.45-9.702,4.977-9.936,5.491
	c-2.854,6.325-4.548,10.745-3.45,21.422c0.836,8.123,6.359,12.671,9.646,13.629c0.521,0.151,1.065,0.238,1.626,0.257
	c2.54,0.089,4.656-1.191,5.055-1.448c3.366-2.176,6.907-11.858,8.81-17.061c0.266-0.729,0.525-1.436,0.734-1.98
	c0.016,0.417,0.034,0.908,0.053,1.41c0.084,2.264,0.2,5.364,0.34,6.544c0.194,1.654,0.44,3.413,1.089,5.144
	c0.48,1.283,1.36,2.192,2.356,2.43c0.379,0.092,0.747,0.144,1.096,0.155c3.236,0.112,4.333-3.101,5.213-5.683
	c0.22-0.645,0.427-1.254,0.651-1.752c0.346-0.778,0.688-1.557,1.027-2.336c0.477-1.085,0.969-2.206,1.465-3.305
	c0.836-1.848,6.251-12.903,8.851-18.217c0.824-1.686,1.37-2.799,1.458-2.981c0.369-0.77,0.779-1.281,1.163-1.451
	c0.035,0.01,0.085,0.03,0.128,0.053c-0.211,1.206-1.184,7.142-1.436,9.548c-1.177,11.222,0.477,14.328,4.164,16.4
	c0.708,0.399,1.558,0.628,2.455,0.659c3.26,0.111,6.397-2.207,8.392-6.208c1.817-3.26,5.175-12.831,6.046-15.349
	c0.414,0.685,1.167,1.964,1.854,3.131c1.054,1.794,2.249,3.825,2.854,4.782c0.906,1.435,3.731,6.119,4.308,7.074
	c-2.739,3.967-4.199,7.577-4.462,11.031c-0.087,1.149-0.066,1.854,0.284,2.745c0.409,1.041,1.039,1.896,1.872,2.538
	c1.243,0.96,2.654,1.474,4.197,1.526c3.54,0.122,6.64-2.21,7.027-2.825c1.91-3.019,2.47-6.554,1.617-10.22
	c-0.014-0.056-0.023-0.1-0.029-0.133c-0.158-0.749-1.048-2.802-1.832-4.61c-0.438-1.012-0.856-1.971-1.039-2.47
	c0.27-0.513,1.345-2.556,1.869-3.317c1.32-1.922,6.5-7.859,10.615-8.974c0.267-0.073,0.529-0.105,0.776-0.097
	c1.314,0.046,2.396,1.202,3.21,3.44c0.076,0.211,0.097,0.267,0.178,0.329l0.186,0.144l0.188-0.142
	c0.55-0.421,2.344-1.907,2.333-3.417C395.313,178.118,393.284,177.363,391.588,177.304 M371.705,206.462
	c-0.349,1.695-0.988,3.102-1.592,3.496c-0.239,0.158-0.604,0.396-0.876,0.386c-0.065-0.002-0.123-0.018-0.178-0.048
	c-1.056-0.587-0.635-2.35-0.411-3.296c0.552-2.311,1.397-4.507,2.516-6.524c0.013-0.027,0.041-0.059,0.074-0.091
	c0.182,0.182,0.261,0.425,0.35,0.697C372.065,202.545,372.107,204.506,371.705,206.462 M298.003,189.875
	c0.403-1.766,1.029-3.433,1.646-4.97c0.397-0.994,0.83-1.996,1.25-2.964l0.251-0.584c0.111-0.253,0.211-0.461,0.383-0.613
	c0.073,0.195,0.135,0.489,0.125,1.033c-0.037,1.928-0.684,3.953-2.037,6.374C299.221,188.866,298.691,189.435,298.003,189.875"/>
<path fill="#FFFFFF" d="M284.43,182.354c0.116-0.033,4.321-0.791,8.391-4.107c1.962-1.598,3.235-3.791,3.712-4.738
	c0.936-1.865,1.288-3.885,1.096-5.984c-0.111-1.205-0.439-2.341-1.28-3.22c-0.514-0.535-2.229-1.726-4.16-1.193
	c-0.963,0.266-1.366,0.721-1.842,1.756c0.083,0.069,5.786,1.933,4.332,7.485c-1.246,4.759-4.831,4.776-6.304,4.99
	c-1.199,0.175-3.884,0.23-4.405,0.199c-0.392-0.022-0.728-0.228-0.872-0.579c-1.619-3.898-4.304-5.499-5.393-5.778
	c-1.435-0.369-2.649-0.467-3.991,0.472c-1.454,1.018-2.773,3.281-2.501,5.351c0.533,4.05,5.568,5.271,5.568,5.271
	c0.355,1.466,0.225,3.754,0.186,5.249c-0.022,0.888-0.79,8.915-0.945,9.907c-0.086,0.553-1.792,14.628-5.593,14.246
	c-1.157-0.115-1.872-2.099-2.196-2.914c-0.717-1.8-2.382-10.557-2.48-12.769c-0.069-1.606-0.45-11.74-0.235-13.237
	c0.185-1.273,0.162-3.506-0.883-4.181c-3.295-2.126-5.412,0.152-6.062,0.733c-0.685,0.612-2.655,4.002-2.188,9.014
	c0.213,2.287,1.059,5.843,0.424,7.253c-0.27,0.601,0.562,1.035,2.311-0.394c0,0,0.644,5.381,1.889,8.899
	c1.118,3.164,3.106,6.477,3.78,7.329c1.405,1.782,2.729,2.588,3.991,2.815c3.797,0.684,7.734-0.207,9.875-3.018
	c4.379-5.761,5.096-13.993,5.321-15.863c0.165-1.374,0.53-11.176,0.454-11.978L284.43,182.354z M273.919,176.182
	c-0.07-0.202-0.041-0.483,0.046-0.688c0.088-0.212,0.54-0.064,0.744,0.284c0.253,0.43,0.46,0.884,0.821,1.586
	C274.447,177.314,274.129,176.785,273.919,176.182"/>
</svg>
