<?xml version="1.0" encoding="utf-8"?>
<!-- Generator: Adobe Illustrator 16.0.0, SVG Export Plug-In . SVG Version: 6.00 Build 0)  -->
<!DOCTYPE svg PUBLIC "-//W3C//DTD SVG 1.1//EN" "http://www.w3.org/Graphics/SVG/1.1/DTD/svg11.dtd">
<svg version="1.1" id="Camada_1" xmlns="http://www.w3.org/2000/svg" xmlns:xlink="http://www.w3.org/1999/xlink" x="0px" y="0px"
	 width="400px" height="239.221px" viewBox="0 0 400 239.221" enable-background="new 0 0 400 239.221" xml:space="preserve">
<path fill="#FFFFFF" d="M74.499,98.224c-0.191-1.896-1.428-2.567-2.427-2.567c-0.972,0-1.796,0.594-1.957,1.414
	c-0.076,0.381-0.046,0.906-0.012,1.514c0.075,1.302,0.169,2.922-0.714,3.857c-0.509,0.541-1.29,0.802-2.385,0.802
	c-0.07,0-0.143,0-0.214-0.003c-0.729-0.021-1.346-0.345-1.887-0.989c-3.363-4-2.442-18.99-1.923-22.613
	c0.158-1.112,0.43-3.059,1.016-5.341c2.023-7.887,3.994-14.298,1.759-16.49c-0.803-0.79-1.814-1.188-3.012-1.188
	c-2.826,0-6.182,2.285-8.039,4.543l-0.003,0.006l-0.004,0.003c-3.082,3.133-4.338,7.386-6.49,11.812
	c-0.26,0.534-0.194,1.064-0.452,1.591c-1.455,2.956-3.187,8.808-4.431,13.113c-0.94,3.263-2.159,6.361-2.948,8.217
	c-0.146-2.017-0.064-6.821,0.534-12.622c0.615-5.949,1.195-11.569,1.136-13.789c-0.09-3.217-1.204-4.85-3.316-4.85
	c-0.504,0-0.97,0.09-1.341,0.164l-0.096,0.017c-0.02,0.005-0.042,0.009-0.061,0.016h-0.001c-7.468,0.784-12.625,11.26-12.931,11.931
	c-1.695,3.006-3.645,7.769-5.608,13.095c1.083-4.25,2.062-8.359,2.453-10.027c0.928-3.934,0.997-8.627-0.941-10.242
	c-1.435-1.194-3.629-1.908-5.869-1.91c-2.193,0-5.438,0.677-8.44,3.891c-3.569,3.824-2.839,6.805-2.359,7.91
	c0.55,1.268,1.626,2.121,2.68,2.121c0.157,0,0.313-0.021,0.463-0.061c0.913-0.239,1.527-0.636,1.831-1.184
	c0.307-0.557,0.167-1.046,0.15-1.101l-0.025-0.082l-0.062-0.058c-0.052-0.052-1.32-1.325-0.139-3.949
	c0.855-1.908,2.313-3.4,3.315-3.4c0.421,0,0.753,0.281,0.984,0.843c0.921,2.227-0.343,8.903-1.31,12.017
	c-0.75,2.415-4.342,15.958-3.316,22.062c0.69,4.112,2.316,6.471,4.46,6.471c0.708,0,1.415-0.271,2.096-0.798
	c0.271-0.211,1.234-2.713,2.862-7.439c0.078-0.228,7.052-20.469,11.396-29.333c1.183-2.413,2.566-4.229,4.119-5.412
	c0.089,1.827-0.198,4.833-0.852,8.952c-1.697,10.691-2.4,22.009,0.799,25.979c0.583,0.724,1.303,1.113,2.138,1.162
	c0.125,0.007,0.249,0.01,0.372,0.01c4.146,0,6.669-4.055,7.563-5.799l0.009-0.019l0.001-0.004c0.31-0.604,0.465-1.007,0.473-1.025
	l0.016-0.042l0.004-0.046l0.002-0.021c0.624-1.449,1.585-4.427,2.797-8.188c2.242-6.949,4.664-17.113,7.372-22.126
	c1.639-3.038,1.445-3.447,2.909-4.622c0.007,0.36-2.86,14.572-3.261,20.195c-0.666,9.323-0.065,20.942,8.056,23.047
	c0.877,0.229,1.747,0.345,2.588,0.345c2.562,0,6.26-2.07,8.067-4.068C73.672,102.164,74.66,99.825,74.499,98.224"/>
<path fill="#FFFFFF" d="M209.886,44.32c-5.263-7.259-12.516-1.615-12.033,0.162c0.486,1.776,3.066,0.403,3.066,0.403
	s6.944-2.1,7.432,13.809c0.29,9.538-2.584,20.263-10.837,25.037c-9.929,6.045-18.653-7.95-20.492-16.887
	c-1.908-9.275-1.26-13.896-1.885-19.338c-0.392-3.408-3.817-3.594-5.902-3.301l-0.004-0.065c0,0-0.408-0.024-0.997,0.239
	c-0.036,0.007-0.061,0.013-0.061,0.013v0.014c-0.805,0.379-1.924,1.289-2.817,3.479c-1.367,3.348-4.577,18.113-6.547,21.747
	c-1.729,3.188-3.021,3.752-4.487,3.941c-0.674-0.172-1.425-0.599-1.812-1.616c-1.116-2.91-0.233-11.426,3.405-18.951
	c3.86-7.979,8.497-4.507,9.06-7.542c0.41-2.211-2.741-3.701-6.951-2.646c-0.021,0.003-0.032,0.004-0.032,0.004
	s-0.084,0.021-0.233,0.062c-0.04,0.01-0.077,0.021-0.115,0.034c-1.971,0.554-12.001,3.655-21.259,11.521
	c-1.69-2.704-4.529-4.676-9.302-3.927l-0.014,0.033c-5.766,1.51-8.693,10.525-8.786,10.89c-0.062-5.816-0.683-10.983-0.683-10.983
	c-2.665-0.983-4.287-0.983-5.279-0.579l-0.001-0.037c0,0-3.359-1.098-5.448,15.727c-1.355,10.938-5.767,18.497-8.284,20.031
	l-0.014-0.033c-6.814-0.151,0.607-21.361-1.1-24.683c-1.073-2.088-3.603-1.742-6.054-0.396c-2.541,1.395-3.758,6.518-3.848,6.681
	c-0.196,0.911-4.051,15.637-8.175,18.934c-0.781,0.112-1.574-0.297-1.764-2.273c-0.4-4.16,0.57-17.192,9.872-22.438
	c0,0,3.835-1.787,4.363-3.055c0.564-1.136-1.594-2.406-5.171-2.022c-5.602,0.602-9.786,2.731-13.558,9.139
	c-3.772,6.407-4.911,11.014-3.249,19.1c1.662,8.083,8.885,6.896,11.283,4.883c0,0,3.517-2.452,6.262-11.873
	c2.27-7.795,3.169-10.9,3.169-10.9s-3.385,13.227-1.357,19.073c2.719,7.84,10.589,3.228,10.589,3.228
	c2.926-1.33,8.113-12.604,8.984-17.471c0.152,5.455-0.312,16.858-0.866,25.756c-5.101,2.181-9.733,4.874-13.474,8.146
	c-9.634,8.434-5.303,23.329,4.938,21.042c10.996-2.453,12.768-14.289,12.786-14.414c1.101-3.722,1.946-8.343,2.543-12.399
	c4.303-1.104,8.588-1.779,12.329-2.338c12.5-1.871,37.366-0.067,37.366-0.067c-1.181-7.155-6.87-7.409-6.87-7.409
	c-10.065-1.125-27.124-0.04-42.156,4.694c0.116-1.014,0.208-1.906,0.275-2.633c0.599-6.377,0.935-15.95,1.918-19.9
	c1.079-4.339,4.594-17.95,9.268-15.594c1.273,0.644,1.938,2.881,2.159,5.778c-2.825,3.703-5.264,8.052-6.945,13.142
	c-0.607,1.835-0.812,3.357-0.763,4.616c-0.091,1.03,0.344,2.993,0.594,3.314c1.754,2.508,3.79,3.41,6.637,3.222
	c1.578-0.32,3.083-1.73,4.354-3.187c3.067-4.29,5.895-10.834,5.929-18.321c0,0,0.139-3.754-1.073-7.451
	c3.312-3.001,6.918-5.519,10.403-7.573c-1.995,2.964-3.475,7.331-4.156,11.727c0.091-1.144-0.392,3.315-0.339,2.967
	c-0.491,6.866,0.694,13.628,6.145,14.688c4.678,0.909,8.639-1.465,11.981-7.622c0.021-0.038,0.038-0.062,0.038-0.062l-0.001,0.001
	c2.588-4.52,4.478-14.979,4.479-14.965c0.643,7.687,1.155,22.99,13.558,30.481c12.811,7.739,23.716-3.394,23.716-3.394
	C213.277,74.999,214.325,50.444,209.886,44.32 M107.232,106.738c-0.25,2.43-2.263,10.456-4.42,15.471
	c-8.748,5.666-12.373-6.956-5.919-13.473c2.997-3.025,6.741-5.205,10.748-6.826C107.501,103.815,107.363,105.468,107.232,106.738
	 M124.885,81.573c-0.104,0.017-0.219,0.025-0.341,0.025c0.104-2.845,1.024-7.211,4.363-13.208c0.017-0.029,0.035-0.061,0.052-0.092
	C128.428,74.684,126.683,81.271,124.885,81.573"/>
<path fill="#FFFFFF" d="M359.403,20.762c-26.355-26.355-69.095-26.347-95.45,0.01c-26.354,26.355-26.354,69.085,0,95.439
	c26.355,26.358,69.095,26.368,95.45,0.009C385.756,89.866,385.756,47.119,359.403,20.762 M269.522,110.641
	c-23.281-23.28-23.289-61.026-0.008-84.309c23.281-23.281,61.026-23.273,84.31,0.009c23.281,23.281,23.281,61.02,0,84.3
	C330.54,133.927,292.804,133.927,269.522,110.641"/>
<path fill="#FFFFFF" d="M296.026,55.678l5.742,5.749c-0.186,4.891,0.106,8.683,0.013,14.149l-23.646,23.621
	C286.638,84.622,292.76,69.733,296.026,55.678 M294.845,51.67c-3.223,16.174-10.39,33.652-21.071,50.898
	c-0.645,1.031,0.219,2.106,1.175,2.106c0.324,0,0.659-0.124,0.95-0.414l27.356-27.357c-4.646-4.646-4.638-12.186,0-16.822
	L294.845,51.67L294.845,51.67z"/>
<path fill="#FFFFFF" d="M328.488,85.314l-8.411-8.411c4.647-4.646,4.647-12.177,0-16.822l27.366-27.366
	c1.148-1.147,2.987,0.312,2.125,1.693C338.884,51.653,331.718,69.131,328.488,85.314"/>
<path fill="#FFFFFF" d="M311.666,68.493l-8.6,8.599c-4.749-4.75-4.741-12.456,0-17.197L311.666,68.493z"/>
<path fill="#FFFFFF" d="M326.749,68.316c0,2.239-2.337,6.971-3.583,8.776l-8.652-8.598l8.36-8.303
	C322.874,60.192,326.749,66.077,326.749,68.316z M311.686,68.495l9.136,9.137c5.05-5.047,5.05-13.227,0-18.273L311.686,68.495z"/>
<path fill="#FFFFFF" d="M257.613,208.654c-0.04-0.141-0.081-0.272-0.118-0.392c-1.9-6.202-2.274-18.155-2.413-22.657
	c-0.018-0.617-0.035-1.09-0.048-1.382c-0.121-2.612-1.003-4.432-2.485-5.12c-0.371-0.17-0.87-0.275-1.44-0.293
	c-1.583-0.056-3.683,0.53-4.825,2.342c-0.065,0.103-0.135,0.207-0.202,0.307c-0.299,0.448-0.634,0.959-0.764,1.598
	c-0.033,0.17-0.069,0.34-0.105,0.51c-0.191,0.923-0.39,1.882-0.406,2.884c-0.021,1.201-0.322,5.365-0.423,6.181
	c-0.01,0.084-0.026,0.26-0.052,0.501c-1.184,11.458-2.741,14.84-3.564,15.836c-0.12,0.144-0.641,0.504-1.152,0.49
	c-1.15-0.042-1.863-2.16-1.9-5.677c0-0.106-0.245-11.189-1.491-13.264c-0.144-0.24-0.915-1.459-1.899-1.837
	c-0.907-0.35-1.888-0.545-2.907-0.581c-0.778-0.026-1.582,0.036-2.453,0.188c-0.289,0.047-0.432,0.255-0.484,0.333l-0.233,0.278
	l0.142,0.361c0.567,1.428,0.749,2.232,0.855,3.751c0.081,1.204-0.016,9.796-0.095,12.609c-0.094,3.479,0.724,6.43,2.431,8.771
	c1.828,2.514,5.227,3.52,7.062,3.583c0.3,0.01,0.562-0.003,0.782-0.043c2.641-0.437,4.799-2.046,5.605-3.019
	c2.209-2.667,3.134-8.305,3.638-11.675c0.77,6.743,2.48,11.347,5.103,13.717c2.22,2.002,4.821,2.187,5.322,2.207
	c0.097,0.003,0.158,0,0.199,0c1.742,0.015,2.906-0.889,3.056-1.24l0.188-0.436l-0.363-0.312
	C259.496,214.89,258.272,210.832,257.613,208.654"/>
<path fill="#FFFFFF" d="M239.54,223.898l-0.773-0.05l0.086,0.771c0.194,1.765-0.476,4.414-0.638,4.782
	c-1.005,1.727-1.927,2.6-3.397,3.219c-0.372,0.158-0.896,0.231-1.476,0.214c-3.774-0.132-8.666-3.786-10.021-13.65
	c-0.455-3.306-0.204-13.633,0.161-15.294l0.008-0.035l0.006-0.033c0.187-1.73,0.722-4.345,1.291-7.112
	c1.052-5.118,2.24-10.918,1.926-14.218c-0.184-1.929-2.142-5.551-5.391-5.914l-0.159-0.017c-0.441-0.05-0.94-0.106-1.479-0.127
	c-1.281-0.043-3.246,0.085-5.526,1.691c-2.351,1.652-4.584,4.516-6.83,8.748c-1.004,1.887-5.859,11.675-6.337,12.768
	c-0.103,0.236-0.327,0.771-0.582,1.386c-0.103,0.243-0.223,0.53-0.35,0.832c0.006-5.368-0.048-10.247-0.671-11.502
	c-1.284-2.587-2.932-3.211-5.121-3.81c-0.196-0.053-0.475-0.088-0.824-0.1c-1.833-0.062-5.534,0.437-6.428,2.793
	c-0.068,0.179-0.157,0.627,0.491,0.908c1.448,0.63,2.359,2.04,2.718,4.193c0.105,0.656-0.025,2.688-0.178,5.043
	c-0.683,10.553-0.981,21.001,3.448,22.703c0.562,0.214,1.147,0.334,1.738,0.354c1.944,0.067,3.378-0.924,3.645-1.123
	c0.666-0.472,1.193-1.881,1.872-5.024c0.026-0.121,0.05-0.223,0.068-0.303c0.352-1.57,1.696-6.151,2.917-9.475
	c0.897-2.447,8.229-18.481,8.916-19.495c0.034-0.054,0.07-0.109,0.115-0.174c0.371-0.565,1.245-1.888,2.136-2.18
	c0.146-0.05,0.237-0.057,0.291-0.057c0.07,0.004,0.092,0.023,0.123,0.06c0.573,0.724-0.085,3.997-0.439,5.755
	c-0.144,0.71-0.266,1.324-0.339,1.816c-0.157,1.088-0.335,2.19-0.507,3.257c-0.148,0.913-0.3,1.863-0.44,2.799
	c-0.153,1.013-0.591,6.089-0.622,7.668c-0.25,12.291,3.261,21.562,10.438,27.567c2.642,2.206,5.567,3.379,8.692,3.49
	c4.996,0.173,9.193-2.461,10.306-4.431c1.227-2.171,1.369-4.674,0.369-6.523C242.08,224.781,240.904,223.992,239.54,223.898"/>
<path fill="#FFFFFF" d="M288.957,182.4c0.125-0.035,4.573-0.839,8.882-4.346c2.075-1.694,3.422-4.012,3.926-5.013
	c0.99-1.974,1.365-4.11,1.158-6.333c-0.116-1.274-0.462-2.478-1.353-3.406c-0.545-0.565-2.36-1.829-4.402-1.265
	c-1.021,0.281-1.447,0.763-1.948,1.859c0.087,0.073,6.123,2.045,4.584,7.92c-1.32,5.032-5.112,5.053-6.669,5.278
	c-1.271,0.186-4.111,0.244-4.662,0.212c-0.415-0.026-0.771-0.241-0.926-0.613c-1.711-4.122-4.552-5.817-5.705-6.113
	c-1.52-0.391-2.804-0.492-4.224,0.5c-1.539,1.077-2.936,3.472-2.645,5.66c0.562,4.285,5.894,5.577,5.894,5.577
	c0.373,1.55,0.235,3.971,0.192,5.556c-0.021,0.938-0.835,9.434-1,10.482c-0.091,0.587-1.899,15.479-5.917,15.074
	c-1.224-0.123-1.981-2.222-2.324-3.082c-0.759-1.905-2.521-11.171-2.626-13.51c-0.074-1.703-0.478-12.426-0.249-14.011
	c0.194-1.345,0.172-3.71-0.933-4.422c-3.489-2.251-5.729,0.16-6.415,0.776c-0.726,0.647-2.811,4.234-2.316,9.538
	c0.226,2.419,1.118,6.182,0.447,7.676c-0.283,0.633,0.595,1.093,2.446-0.416c0,0,0.681,5.693,1.996,9.412
	c1.185,3.35,3.291,6.854,4.001,7.761c1.487,1.884,2.889,2.736,4.226,2.977c4.019,0.724,8.184-0.22,10.447-3.194
	c4.635-6.096,5.391-14.805,5.633-16.785c0.176-1.454,0.56-11.827,0.479-12.678L288.957,182.4z M277.836,175.868
	c-0.074-0.214-0.042-0.513,0.047-0.727c0.096-0.224,0.574-0.071,0.788,0.302c0.269,0.449,0.488,0.935,0.871,1.676
	C278.397,177.066,278.059,176.507,277.836,175.868"/>
<path fill="#FFFFFF" d="M392.916,202.623c-0.197-1.98-1.489-2.681-2.534-2.681c-1.015,0-1.874,0.618-2.045,1.477
	c-0.078,0.399-0.045,0.943-0.01,1.579c0.078,1.36,0.178,3.048-0.744,4.03c-0.534,0.56-1.35,0.834-2.494,0.834
	c-0.071,0-0.146-0.002-0.22-0.005c-0.762-0.021-1.403-0.36-1.973-1.031c-3.511-4.177-2.548-19.827-2.009-23.608
	c0.167-1.163,0.452-3.197,1.063-5.577c2.112-8.234,4.167-14.927,1.838-17.216c-0.84-0.824-1.897-1.241-3.146-1.241h-0.002
	c-2.949,0-6.454,2.387-8.393,4.743l-0.003,0.006l-0.005,0.005c-3.218,3.271-4.528,7.711-6.776,12.329
	c-0.271,0.557-0.204,1.11-0.473,1.662c-1.517,3.085-3.325,9.195-4.627,13.69c-0.98,3.405-2.252,6.641-3.077,8.578
	c-0.152-2.104-0.066-7.121,0.559-13.179c0.642-6.209,1.246-12.079,1.185-14.392c-0.093-3.361-1.256-5.065-3.461-5.065
	c-0.526,0-1.011,0.093-1.403,0.169l-0.1,0.02c-0.019,0.004-0.04,0.009-0.062,0.016c-7.797,0.817-13.181,11.754-13.5,12.454
	c-1.771,3.139-3.807,8.111-5.855,13.671c1.129-4.439,2.15-8.729,2.56-10.468c0.97-4.108,0.477-8.502-0.983-10.693
	c-1.219-1.831-3.093-3.457-5.43-3.546c-2.963-0.109-5.8,2.577-6.289,3.502c-2.797,5.278-11.844,31.863-12.277,33.044
	c-0.814,2.222-3.427,7.974-5.72,7.896c-0.265-0.013-0.518-0.097-0.768-0.268c-0.013-0.015-2.497-2.421-3.135-6.508
	c-0.4-2.544-0.547-6.655-0.337-9.357c0.056-0.7,0.367-1.169,0.959-1.431c1.908-0.834,3.396-2.265,4.719-3.68
	c2.135-2.286,3.534-4.741,4.165-7.304c1.279-5.21-0.014-7.144-0.563-7.97c-0.044-0.065-0.084-0.123-0.114-0.173
	c-0.764-1.264-2.454-1.782-3.34-1.815c-0.071,0-0.136,0-0.194,0.004c-7.883,0.475-10.265,5.263-10.512,5.806
	c-3.02,6.695-4.815,11.373-3.651,22.673c0.885,8.595,6.729,13.41,10.206,14.423c0.549,0.159,1.127,0.249,1.72,0.27
	c2.688,0.095,4.927-1.263,5.35-1.535c3.562-2.3,6.661-12.862,8.674-18.365c0.277-0.75,3.956-12.868,6.927-23.151
	c0.086-0.301,0.544-0.239,0.783-0.239c0.439,0,0.786,0.293,1.029,0.879c0.961,2.327-0.361,9.298-1.371,12.548
	c-0.78,2.521-4.528,16.663-3.461,23.034c0.723,4.293,2.42,6.757,4.654,6.757c0.741,0,1.478-0.28,2.192-0.834
	c0.281-0.217,1.288-2.835,2.987-7.77c0.082-0.233,7.362-21.369,11.899-30.626c1.233-2.518,2.68-4.412,4.3-5.646
	c0.092,1.906-0.206,5.041-0.889,9.344c-1.773,11.162-2.508,22.98,0.832,27.124c0.609,0.754,1.361,1.164,2.236,1.211
	c0.13,0.011,0.256,0.015,0.384,0.015c4.331,0,6.968-4.234,7.897-6.055l0.011-0.02l0.001-0.004c0.322-0.63,0.484-1.052,0.494-1.072
	l0.014-0.047l0.007-0.045l0.001-0.022c0.652-1.509,1.654-4.622,2.92-8.545c2.339-7.259,4.872-17.87,7.697-23.102
	c1.715-3.174,1.511-3.602,3.039-4.826c0.006,0.375-2.987,15.212-3.405,21.082c-0.696,9.737-0.069,21.867,8.408,24.068
	c0.917,0.233,1.826,0.354,2.704,0.354c2.674,0,6.535-2.159,8.423-4.245C392.052,206.735,393.084,204.297,392.916,202.623
	 M305.062,185.099c0.422-1.052,0.88-2.11,1.323-3.14l0.267-0.611c0.116-0.27,0.221-0.492,0.406-0.651
	c0.076,0.206,0.141,0.516,0.132,1.09c-0.042,2.043-0.726,4.186-2.155,6.747c-0.422,0.759-0.986,1.356-1.713,1.822
	C303.748,188.49,304.411,186.725,305.062,185.099"/>
<path fill="#FFFFFF" d="M202.719,161.191c-0.646,0.02-0.431,0.455-0.299,0.631c0.132,0.183-0.225,1.003-1.322,1.261
	c-0.379,0.066-0.717-0.075-0.983-0.564c-2.102-3.893,1.592-18.471,2.233-22.845c0.717-4.876,0.069-6.464-2.899-6.683
	c-1.458-0.107-2.545,0.718-3.276,1.582c-0.748,0.892-1.117,1.824-1.117,1.824s-0.045,0.216-0.128,0.61l-5.037,9.835
	c0,0-7.028,14.974-9.632,13.228c0,0-1.597-3.165-0.161-9.51c0.957-4.228,4.188-10.907,8.403-12.537
	c2.723-1.054,4.157-0.631,4.389-1.772c0.235-1.141-3.547-4.942-7.723-3.702c-4.177,1.239-8.885,5.371-11.969,13.256
	c-1.155,2.956-1.707,5.775-1.72,8.313c-1.262,3.781-4.893,14.625-5.792,16.77c-1.096,2.601-1.71,0.614-1.71,0.614
	s-1.78-6.209-1.026-16.556c0.75-10.343,4.363-16.133,3.536-24.755c-0.479-5.002-5.172-5.546-8.824-3.368
	c-7.69,4.589-14.967,26.683-14.967,26.683c-0.223-7.16,0.835-14.298-6.661-14.468c-5.118-0.11-3.344,3.178-2.651,3.703
	c0.666,0.505,0.933,1.44,1.054,1.989c0.387,1.741,0,5.198,0,7.13c0,4.536-0.288,6.773-0.047,8.271
	c1.229,7.689,9.023,5.825,9.783,2.589c8.418-35.879,13.965-32.683,14.746-32.203c1.016,0.618-1.088,2.354-3.431,14.135
	c-4.476,22.533-2.725,28.427,0.544,30.857c1.264,0.936,7.668,4.352,10.952-0.445c1.991-2.909,4.16-10.347,5.558-15.751l0.235,0.825
	c0.762,1.412,1.845,2.553,3.251,3.348c4.912,2.771,9.87-2.404,11.645-5.155c2.136-3.312,3.89-6.956,5.292-10.37
	c-0.444,3.07-0.762,6.103-0.683,8.158c0.219,5.879,3.408,12.163,8.376,10.41c1.172-0.409,1.934-0.872,2.658-1.717
	C204.203,163.785,203.816,161.155,202.719,161.191"/>
</svg>
