<?xml version="1.0" encoding="utf-8"?>
<!-- Generator: Adobe Illustrator 16.0.0, SVG Export Plug-In . SVG Version: 6.00 Build 0)  -->
<!DOCTYPE svg PUBLIC "-//W3C//DTD SVG 1.1//EN" "http://www.w3.org/Graphics/SVG/1.1/DTD/svg11.dtd">
<svg version="1.1" id="Camada_1" xmlns="http://www.w3.org/2000/svg" xmlns:xlink="http://www.w3.org/1999/xlink" x="0px" y="0px"
	 width="400px" height="239.221px" viewBox="0 0 400 239.221" enable-background="new 0 0 400 239.221" xml:space="preserve">
<g>
	<path fill="#92281A" d="M359.991,20.047c-26.735-26.735-70.087-26.725-96.821,0.009c-26.733,26.735-26.733,70.073,0,96.805
		c26.734,26.735,70.086,26.747,96.821,0.012C386.726,90.137,386.726,46.781,359.991,20.047 M268.821,111.214
		c-23.615-23.617-23.624-61.901-0.009-85.518c23.616-23.616,61.905-23.607,85.521,0.009c23.616,23.615,23.616,61.891,0,85.508
		C330.717,134.827,292.437,134.827,268.821,111.214"/>
	<path fill="#B98926" d="M303.038,76.991l-27.75,27.749c-1.165,1.164-3.03-0.316-2.155-1.717
		c10.836-17.492,18.106-35.218,21.374-51.625l8.531,8.531C298.334,64.633,298.325,72.279,303.038,76.991"/>
	<path fill="#92281A" d="M328.635,85.522l-8.532-8.531c4.712-4.712,4.712-12.35,0-17.062l27.76-27.759
		c1.164-1.166,3.029,0.315,2.155,1.718C339.18,51.379,331.909,69.111,328.635,85.522"/>
	<path fill="#92281A" d="M311.57,68.46l-8.531,8.531c-4.713-4.712-4.704-12.358,0-17.062L311.57,68.46z"/>
	<path fill="#B98926" d="M320.103,76.991l-8.533-8.531l8.533-8.531C324.815,64.641,324.815,72.279,320.103,76.991"/>
</g>
<path fill="#B98926" d="M76.066,100.621c-0.195-1.932-1.456-2.619-2.477-2.619c-0.991,0-1.83,0.606-1.995,1.442
	c-0.077,0.388-0.046,0.925-0.011,1.543c0.077,1.33,0.171,2.98-0.728,3.933c-0.52,0.549-1.315,0.817-2.433,0.817
	c-0.072,0-0.144-0.001-0.217-0.003c-0.743-0.023-1.372-0.353-1.924-1.01c-3.428-4.077-2.489-19.36-1.961-23.053
	c0.163-1.136,0.44-3.12,1.037-5.448c2.062-8.041,4.073-14.576,1.793-16.812c-0.818-0.805-1.852-1.212-3.071-1.212h0
	c-2.88,0-6.303,2.33-8.196,4.634l-0.003,0.004l-0.004,0.005c-3.142,3.194-4.423,7.529-6.617,12.042
	c-0.265,0.544-0.199,1.086-0.462,1.622c-1.482,3.015-3.249,8.98-4.517,13.371c-0.96,3.327-2.201,6.485-3.005,8.378
	c-0.151-2.055-0.066-6.953,0.544-12.871c0.627-6.065,1.219-11.794,1.157-14.058c-0.09-3.28-1.227-4.945-3.379-4.945
	c-0.514,0-0.989,0.091-1.37,0.167l-0.095,0.018c-0.021,0.003-0.04,0.007-0.062,0.015h-0.001
	C30.452,67.38,25.195,78.06,24.883,78.744c-1.728,3.066-3.716,7.92-5.718,13.351c1.104-4.332,2.101-8.521,2.501-10.222
	c0.946-4.011,1.016-8.796-0.961-10.443c-1.462-1.219-3.699-1.945-5.982-1.946c-2.236,0-5.545,0.688-8.605,3.965
	c-3.641,3.898-2.896,6.938-2.407,8.064c0.561,1.292,1.66,2.162,2.733,2.162c0.16,0,0.321-0.02,0.472-0.061
	c0.931-0.243,1.558-0.649,1.866-1.207c0.313-0.566,0.17-1.064,0.154-1.121l-0.027-0.083l-0.063-0.059
	c-0.053-0.052-1.346-1.349-0.142-4.024c0.874-1.947,2.359-3.469,3.381-3.469c0.43,0,0.768,0.288,1.004,0.86
	c0.939,2.271-0.352,9.079-1.338,12.253c-0.763,2.46-4.424,16.27-3.38,22.491c0.705,4.195,2.361,6.599,4.545,6.599
	c0.725,0,1.444-0.274,2.138-0.816c0.277-0.213,1.26-2.764,2.92-7.582c0.079-0.233,7.189-20.87,11.62-29.908
	c1.205-2.46,2.616-4.312,4.199-5.518c0.088,1.864-0.202,4.927-0.869,9.126c-1.729,10.901-2.447,22.441,0.815,26.489
	c0.595,0.738,1.329,1.136,2.182,1.185c0.127,0.008,0.252,0.009,0.376,0.009c4.229,0,6.803-4.134,7.713-5.911l0.01-0.019l0-0.002
	c0.315-0.618,0.475-1.031,0.481-1.048l0.017-0.043l0.003-0.048l0.002-0.022c0.637-1.475,1.616-4.511,2.851-8.347
	c2.287-7.085,4.757-17.447,7.516-22.56c1.673-3.098,1.474-3.514,2.968-4.712c0.006,0.368-2.917,14.856-3.325,20.59
	c-0.68,9.506-0.067,21.354,8.212,23.501c0.894,0.229,1.781,0.349,2.64,0.349c2.611,0,6.381-2.11,8.225-4.147
	C75.22,104.639,76.23,102.256,76.066,100.621"/>
<path fill="#B98926" d="M214.101,45.661c-5.364-7.401-12.76-1.646-12.267,0.165c0.495,1.812,3.13,0.411,3.13,0.411
	s7.081-2.14,7.572,14.078c0.297,9.726-2.635,20.661-11.049,25.529c-10.122,6.163-19.017-8.107-20.892-17.218
	c-1.945-9.457-1.285-14.168-1.92-19.718c-0.398-3.474-3.895-3.663-6.019-3.365l-0.003-0.066c0,0-0.417-0.023-1.018,0.244
	c-0.037,0.009-0.06,0.013-0.06,0.013v0.013c-0.821,0.386-1.962,1.313-2.874,3.548c-1.393,3.415-4.666,18.47-6.673,22.174
	c-1.762,3.25-3.08,3.828-4.576,4.019c-0.689-0.174-1.453-0.611-1.851-1.647c-1.138-2.967-0.237-11.65,3.475-19.323
	c3.935-8.138,8.663-4.596,9.236-7.69c0.417-2.253-2.793-3.773-7.086-2.696c-0.022,0.003-0.034,0.003-0.034,0.003
	s-0.084,0.023-0.238,0.065c-0.04,0.009-0.079,0.021-0.12,0.033c-2.009,0.565-12.234,3.728-21.673,11.749
	c-1.724-2.759-4.619-4.768-9.486-4.003l-0.012,0.033c-5.881,1.538-8.861,10.729-8.957,11.101c-0.064-5.93-0.698-11.198-0.698-11.198
	c-2.714-1.004-4.371-1.004-5.382-0.59l-0.001-0.038c0,0-3.425-1.12-5.554,16.035c-1.384,11.152-5.882,18.859-8.448,20.423
	l-0.015-0.035c-6.945-0.152,0.621-21.778-1.121-25.167c-1.094-2.127-3.673-1.775-6.172-0.403c-2.589,1.421-3.83,6.646-3.924,6.811
	c-0.199,0.929-4.129,15.944-8.336,19.305c-0.795,0.115-1.603-0.302-1.797-2.318c-0.407-4.242,0.582-17.53,10.065-22.879
	c0,0,3.91-1.82,4.45-3.115c0.576-1.158-1.625-2.452-5.272-2.06c-5.712,0.611-9.978,2.784-13.824,9.318
	c-3.847,6.533-5.009,11.229-3.313,19.471c1.695,8.243,9.06,7.033,11.504,4.981c0,0,3.586-2.502,6.383-12.106
	c2.316-7.948,3.233-11.116,3.233-11.116s-3.454,13.487-1.384,19.45c2.771,7.99,10.795,3.291,10.795,3.291
	c2.984-1.357,8.274-12.853,9.161-17.815c0.155,5.562-0.319,17.189-0.881,26.262c-5.202,2.224-9.928,4.968-13.738,8.305
	c-9.824,8.597-5.407,23.783,5.035,21.454c11.211-2.502,13.017-14.567,13.036-14.694c1.123-3.794,1.983-8.505,2.593-12.642
	c4.385-1.126,8.756-1.814,12.569-2.385c12.746-1.905,38.1-0.066,38.1-0.066c-1.205-7.298-7.003-7.556-7.003-7.556
	c-10.264-1.145-27.656-0.04-42.983,4.789c0.119-1.034,0.213-1.946,0.282-2.685c0.609-6.503,0.953-16.264,1.954-20.292
	c1.1-4.422,4.684-18.301,9.449-15.9c1.299,0.656,1.976,2.938,2.202,5.892c-2.879,3.776-5.367,8.21-7.082,13.4
	c-0.617,1.872-0.828,3.421-0.778,4.707c-0.092,1.051,0.351,3.051,0.606,3.381c1.79,2.556,3.864,3.475,6.769,3.282
	c1.608-0.325,3.142-1.764,4.438-3.247c3.128-4.374,6.013-11.047,6.045-18.681c0,0,0.145-3.827-1.092-7.597
	c3.375-3.061,7.053-5.625,10.605-7.722c-2.034,3.023-3.542,7.476-4.239,11.955c0.095-1.165-0.398,3.382-0.347,3.027
	c-0.499,7,0.709,13.895,6.265,14.975c4.77,0.927,8.807-1.493,12.218-7.769c0.022-0.04,0.038-0.065,0.038-0.065h-0.003
	c2.643-4.605,4.566-15.273,4.568-15.255c0.656,7.836,1.18,23.44,13.825,31.078c13.061,7.89,24.176-3.46,24.176-3.46
	C217.558,76.943,218.629,51.908,214.101,45.661 M109.439,109.303c-0.253,2.479-2.306,10.655-4.507,15.772
	c-8.917,5.771-12.615-7.095-6.035-13.734c3.057-3.084,6.872-5.308,10.96-6.96C109.714,106.323,109.572,108.008,109.439,109.303
	 M127.438,83.643c-0.104,0.018-0.223,0.026-0.347,0.026c0.104-2.899,1.044-7.354,4.448-13.466c0.016-0.033,0.037-0.062,0.051-0.093
	C131.052,76.624,129.273,83.337,127.438,83.643"/>
<path fill="#92281A" d="M241.865,129.6c-3.598,1.049-9.626,5.14-14.279,10.078c-0.003-0.003-0.009-0.012-0.014-0.02
	c-5.661-8.454-4.251-13.641-3.669-16.761c0.578-3.112-3.009-4.537-5.284-2.078c-2.273,2.459-2.961,9.095-2.961,9.095l-6.993,18.463
	l0.029,0.021c-1.277,3.046-5.567,12.767-7.166,9.802c-1.89-3.501,1.428-16.594,2.006-20.525c0.644-4.384,0.062-5.806-2.602-6.004
	c-1.312-0.102-2.289,0.641-2.945,1.423c-0.671,0.8-1.002,1.639-1.002,1.639s-0.043,0.194-0.115,0.545l-4.528,8.839
	c0,0-6.316,13.455-8.65,11.886c0,0-1.436-2.844-0.144-8.545c0.858-3.799,3.759-9.798,7.549-11.264
	c2.444-0.947,3.734-0.566,3.944-1.592c0.208-1.026-3.189-4.442-6.942-3.33c-3.754,1.111-7.979,4.829-10.752,11.913
	c-1.225,3.135-1.725,6.114-1.526,8.687c-1.444,4.32-4.458,13.28-5.259,15.184c-1.06,2.522-1.658,0.599-1.658,0.599
	s-1.728-6.026-0.998-16.058c0.729-10.028,4.235-15.646,3.435-24.008c-0.465-4.849-5.02-5.373-8.565-3.264
	c-7.455,4.448-14.513,25.876-14.513,25.876c-0.218-6.943,0.81-13.866-6.458-14.029c-4.963-0.108-3.246,3.081-2.572,3.59
	c0.646,0.489,0.904,1.395,1.022,1.932c0.375,1.686,0,5.039,0,6.911c0,4.398-0.278,6.571-0.046,8.024
	c1.192,7.451,8.752,5.648,9.488,2.506c8.162-34.794,13.542-31.693,14.299-31.231c0.986,0.603-1.055,2.285-3.325,13.712
	c-4.341,21.848-2.644,27.562,0.524,29.921c1.227,0.914,7.441,4.22,10.628-0.432c1.88-2.743,3.917-9.636,5.276-14.834
	c0.678,1.17,1.603,2.13,2.792,2.801c4.41,2.491,8.866-2.16,10.459-4.63c1.919-2.977,3.497-6.252,4.754-9.321
	c-0.398,2.762-0.683,5.482-0.614,7.331c0.2,5.284,3.179,11.221,7.526,9.356c4.658-1.997,7.892-9.31,8.801-11.571h0.003
	c0,0,0.005-0.02,0.019-0.054c0.057-0.148,0.104-0.264,0.141-0.365c0.769-1.958,4.075-10.44,6.151-16.031
	c0.816,3.275,3.652,7.817,5.927,11.823c-0.234,0.404-0.452,0.809-0.648,1.213c-3.775,7.67-4.56,11.371-2.982,15.755
	c1.26,3.504,5.976,5.058,10.455,2.304c0.003,0,0.003,0,0.005-0.004c0.02-0.008,0.035-0.02,0.054-0.03
	c0.298-0.184,0.588-0.382,0.867-0.599l0.003-0.005c1.569-1.216,2.841-3.015,3.163-5.315c0.724-5.17-0.369-9.729-5.002-17.11
	c0.503-0.591,1.041-1.186,1.62-1.776c7.939-8.104,16.069-7.394,16.069-7.394S247.119,128.065,241.865,129.6 M225.764,161.078
	c-1.169,0.273-2.879,0.266-3.249-1.911c-0.258-1.5-0.123-5.661,2.143-10.606l0,0c2.675,5.326,2.865,8.715,2.926,10.078
	C227.65,160.205,226.605,160.83,225.764,161.078"/>
<path fill="#B98926" d="M254.56,208.128c-0.041-0.136-0.076-0.26-0.114-0.376c-1.813-5.917-2.168-17.327-2.303-21.623
	c-0.018-0.591-0.03-1.042-0.044-1.319c-0.115-2.496-0.958-4.231-2.373-4.888c-0.356-0.167-0.831-0.264-1.375-0.283
	c-1.511-0.054-3.516,0.508-4.606,2.237c-0.062,0.1-0.128,0.197-0.194,0.294c-0.282,0.427-0.605,0.912-0.728,1.525
	c-0.032,0.161-0.067,0.323-0.1,0.488c-0.184,0.882-0.372,1.792-0.389,2.75c-0.02,1.146-0.306,5.121-0.401,5.898
	c-0.01,0.084-0.027,0.248-0.052,0.48c-1.131,10.939-2.616,14.165-3.4,15.112c-0.117,0.14-0.613,0.485-1.1,0.469
	c-1.1-0.037-1.779-2.064-1.817-5.413c-0.001-0.105-0.231-10.681-1.423-12.664c-0.138-0.229-0.872-1.396-1.813-1.754
	c-0.866-0.335-1.799-0.519-2.774-0.551c-0.742-0.029-1.509,0.029-2.341,0.176c-0.274,0.046-0.414,0.242-0.463,0.318l-0.226,0.265
	l0.138,0.345c0.541,1.363,0.715,2.132,0.816,3.581c0.078,1.149-0.015,9.351-0.089,12.038c-0.091,3.319,0.69,6.137,2.319,8.374
	c1.744,2.396,4.988,3.356,6.742,3.416c0.283,0.008,0.535-0.003,0.747-0.038c2.52-0.421,4.58-1.956,5.349-2.884
	c2.109-2.543,2.993-7.926,3.472-11.146c0.734,6.437,2.369,10.832,4.872,13.094c2.119,1.91,4.603,2.088,5.079,2.104
	c0.092,0.006,0.155,0.006,0.191,0.003c1.661,0.016,2.774-0.848,2.916-1.18l0.18-0.421l-0.346-0.297
	C256.358,214.083,255.188,210.208,254.56,208.128"/>
<path fill="#B98926" d="M237.31,222.681l-0.738-0.051l0.08,0.736c0.186,1.684-0.453,4.215-0.607,4.568
	c-0.961,1.646-1.841,2.48-3.242,3.071c-0.356,0.148-0.855,0.219-1.411,0.199c-3.602-0.124-8.268-3.61-9.563-13.028
	c-0.437-3.154-0.197-13.013,0.152-14.597l0.008-0.032l0.003-0.035c0.181-1.651,0.692-4.145,1.235-6.789
	c1.004-4.882,2.141-10.417,1.84-13.571c-0.176-1.838-2.046-5.297-5.146-5.643l-0.152-0.019c-0.421-0.046-0.898-0.101-1.415-0.119
	c-1.222-0.043-3.097,0.078-5.274,1.614c-2.242,1.575-4.374,4.31-6.521,8.349c-0.955,1.803-5.587,11.146-6.044,12.189
	c-0.097,0.227-0.308,0.734-0.554,1.322c-0.096,0.232-0.211,0.505-0.333,0.796c0.004-5.127-0.048-9.784-0.641-10.978
	c-1.223-2.472-2.798-3.068-4.887-3.641c-0.188-0.051-0.452-0.083-0.787-0.091c-1.749-0.065-5.282,0.415-6.134,2.666
	c-0.066,0.17-0.15,0.594,0.467,0.863c1.379,0.599,2.253,1.948,2.593,4.005c0.102,0.623-0.023,2.563-0.167,4.813
	c-0.653,10.071-0.938,20.043,3.291,21.67c0.536,0.205,1.095,0.321,1.66,0.34c1.854,0.062,3.222-0.883,3.477-1.074
	c0.635-0.45,1.139-1.797,1.788-4.795c0.025-0.116,0.046-0.214,0.063-0.289c0.335-1.5,1.619-5.875,2.781-9.046
	c0.859-2.334,7.856-17.64,8.51-18.608c0.034-0.049,0.07-0.105,0.109-0.165c0.357-0.54,1.19-1.8,2.04-2.08
	c0.139-0.046,0.227-0.055,0.278-0.055c0.068,0.003,0.089,0.021,0.117,0.057c0.546,0.691-0.082,3.816-0.418,5.494
	c-0.137,0.678-0.257,1.264-0.324,1.733c-0.152,1.036-0.321,2.091-0.485,3.108c-0.141,0.874-0.288,1.778-0.422,2.672
	c-0.144,0.966-0.561,5.812-0.592,7.32c-0.239,11.73,3.112,20.585,9.966,26.313c2.518,2.105,5.31,3.228,8.295,3.33
	c4.766,0.165,8.773-2.351,9.835-4.226c1.173-2.075,1.309-4.464,0.355-6.23C239.735,223.526,238.611,222.77,237.31,222.681"/>
<path fill="#B98926" d="M392.719,177.966c-0.898-0.032-1.938,0.116-3.086,0.445c-2.549,0.724-5.89,2.979-9.93,6.7
	c-2.358,2.176-4.276,4.242-4.996,5.033l-0.166-0.332c-0.535-1.053-4.434-8.333-6.76-12.686c-1.039-1.942-1.86-3.476-1.902-3.556
	c-0.812-1.626-1.55-4.719-1.181-8.524c0.041-0.427,0.126-0.847,0.215-1.29c0.065-0.32,0.132-0.647,0.18-0.979
	c0.115-0.788-0.346-1.987-1.512-2.188c-0.236-0.039-0.479-0.064-0.729-0.073h-0.001c-2.898-0.1-5.973,1.939-6.706,2.653
	c-0.785,0.765-1.086,2.394-1.038,3.669c0.056,1.362,1.307,6.267,1.756,7.479c0.194,0.526,0.367,1.299,0.421,1.545
	c-0.049,0.157-0.142,0.491-0.328,1.155c-0.577,2.075-1.782,6.391-2.647,8.692c-0.133,0.358-2.121,4.971-3.158,7.248
	c-0.149,0.326-1.874,3.519-2.76,4.631c-0.403,0.507-0.785,0.782-1.079,0.771c-0.533-0.021-0.919-1.025-0.986-1.983
	c-0.175-2.469,0.505-7.629,2.019-15.33c0.061-0.318,0.106-0.554,0.133-0.686c0.016-0.092,0.055-0.272,0.109-0.523
	c1.501-6.879,1.691-11.013,0.586-12.641c-0.582-0.856-1.475-1.316-2.652-1.366l-0.099-0.004c-3.8-0.133-6.315,1.693-9.608,6.979
	c-0.484,0.781-12.068,23.928-12.627,25.455c-0.108,0.289-0.308,0.704-0.505,1.106c-0.066,0.135-0.132,0.267-0.191,0.394
	c-0.041-0.27-0.062-0.548-0.055-0.825c0.03-1.776,0.378-17.396,0.434-18.966c0.067-1.905-0.151-3.886-2.27-4.15
	c-0.183-0.022-0.361-0.036-0.534-0.043c-1.94-0.067-3.266,0.895-4.427,3.22c-0.729,1.46-9.507,25.147-9.941,26.338
	c-0.777,2.12-3.273,7.615-5.462,7.536c-0.253-0.008-0.491-0.092-0.734-0.256c-0.01-0.011-2.381-2.31-2.992-6.209
	c-0.38-2.429-0.52-6.353-0.32-8.933c0.053-0.669,0.351-1.114,0.915-1.362c1.821-0.802,3.241-2.165,4.505-3.517
	c2.037-2.181,3.373-4.525,3.974-6.971c1.223-4.976-0.011-6.819-0.535-7.606c-0.044-0.065-0.08-0.119-0.111-0.171
	c-0.729-1.203-2.342-1.699-3.188-1.729c-0.067-0.001-0.129-0.001-0.183,0.002c-7.525,0.454-9.799,5.028-10.036,5.547
	c-2.882,6.39-4.593,10.854-3.484,21.637c0.843,8.206,6.424,12.799,9.742,13.768c0.525,0.154,1.076,0.24,1.643,0.259
	c2.565,0.09,4.703-1.203,5.105-1.465c3.399-2.196,6.977-11.977,8.898-17.23c0.27-0.736,0.53-1.449,0.74-1.999
	c0.018,0.421,0.037,0.914,0.054,1.425c0.087,2.285,0.203,5.416,0.345,6.608c0.197,1.67,0.443,3.448,1.098,5.197
	c0.486,1.295,1.377,2.213,2.381,2.453c0.384,0.092,0.755,0.143,1.107,0.156c3.27,0.113,4.377-3.133,5.267-5.739
	c0.221-0.65,0.432-1.266,0.655-1.771c0.351-0.785,0.696-1.573,1.04-2.361c0.479-1.096,0.976-2.227,1.479-3.335
	c0.844-1.868,6.312-13.034,8.939-18.399c0.832-1.705,1.384-2.83,1.473-3.014c0.372-0.777,0.786-1.294,1.175-1.467
	c0.035,0.01,0.087,0.031,0.13,0.053c-0.212,1.217-1.195,7.216-1.45,9.645c-1.19,11.336,0.481,14.475,4.205,16.566
	c0.717,0.404,1.573,0.634,2.479,0.666c3.294,0.113,6.464-2.231,8.478-6.271c1.837-3.292,5.228-12.958,6.107-15.5
	c0.419,0.688,1.178,1.98,1.872,3.16c1.065,1.811,2.272,3.864,2.883,4.83c0.914,1.449,3.77,6.183,4.35,7.146
	c-2.766,4.008-4.241,7.653-4.505,11.143c-0.09,1.163-0.067,1.873,0.286,2.771c0.412,1.053,1.048,1.916,1.89,2.563
	c1.255,0.972,2.683,1.489,4.24,1.544c3.574,0.124,6.705-2.232,7.1-2.853c1.928-3.052,2.493-6.619,1.634-10.325
	c-0.014-0.057-0.025-0.1-0.031-0.135c-0.159-0.758-1.058-2.828-1.851-4.654c-0.441-1.023-0.864-1.992-1.049-2.496
	c0.271-0.519,1.358-2.583,1.889-3.352c1.333-1.94,6.565-7.937,10.721-9.062c0.268-0.072,0.534-0.107,0.786-0.097
	c1.326,0.046,2.417,1.214,3.239,3.473c0.077,0.214,0.099,0.271,0.18,0.332l0.188,0.148l0.191-0.146
	c0.555-0.424,2.365-1.927,2.356-3.451C396.48,178.786,394.433,178.026,392.719,177.966 M372.635,207.418
	c-0.351,1.713-0.996,3.133-1.607,3.532c-0.242,0.159-0.609,0.399-0.885,0.389c-0.064-0.003-0.125-0.019-0.18-0.049
	c-1.065-0.594-0.644-2.372-0.415-3.327c0.559-2.334,1.412-4.553,2.54-6.59c0.014-0.029,0.042-0.062,0.076-0.092
	c0.184,0.181,0.263,0.429,0.354,0.701C372.998,203.462,373.041,205.443,372.635,207.418 M298.193,190.662
	c0.405-1.783,1.038-3.465,1.66-5.019c0.402-1.004,0.839-2.017,1.262-2.996l0.253-0.585c0.113-0.26,0.215-0.47,0.388-0.621
	c0.075,0.197,0.136,0.494,0.127,1.042c-0.038,1.948-0.689,3.994-2.058,6.438C299.422,189.646,298.885,190.217,298.193,190.662"/>
<path fill="#B98926" d="M284.479,183.069c0.119-0.034,4.366-0.801,8.475-4.15c1.985-1.616,3.27-3.83,3.752-4.787
	c0.944-1.883,1.303-3.923,1.105-6.044c-0.111-1.218-0.443-2.365-1.292-3.252c-0.52-0.54-2.251-1.745-4.202-1.206
	c-0.973,0.269-1.379,0.729-1.86,1.773c0.084,0.069,5.845,1.951,4.376,7.562c-1.258,4.805-4.878,4.824-6.366,5.04
	c-1.212,0.175-3.924,0.231-4.45,0.199c-0.396-0.024-0.735-0.227-0.882-0.583c-1.634-3.938-4.347-5.555-5.446-5.837
	c-1.448-0.373-2.677-0.472-4.031,0.477c-1.471,1.028-2.803,3.313-2.527,5.404c0.538,4.093,5.624,5.326,5.624,5.326
	c0.36,1.479,0.228,3.792,0.188,5.303c-0.021,0.896-0.798,9.003-0.954,10.007c-0.088,0.556-1.811,14.774-5.646,14.391
	c-1.171-0.118-1.894-2.123-2.22-2.946c-0.726-1.819-2.408-10.662-2.507-12.896c-0.07-1.622-0.455-11.857-0.237-13.371
	c0.187-1.285,0.163-3.541-0.892-4.224c-3.329-2.146-5.465,0.154-6.123,0.742c-0.691,0.618-2.682,4.042-2.212,9.104
	c0.216,2.308,1.068,5.902,0.429,7.327c-0.271,0.604,0.567,1.044,2.333-0.396c0,0,0.652,5.435,1.908,8.985
	c1.131,3.198,3.139,6.544,3.818,7.405c1.42,1.797,2.755,2.615,4.031,2.842c3.836,0.69,7.814-0.205,9.976-3.047
	c4.423-5.821,5.146-14.132,5.374-16.024c0.167-1.387,0.536-11.287,0.458-12.097L284.479,183.069z M273.863,176.832
	c-0.069-0.206-0.04-0.489,0.048-0.695c0.09-0.215,0.546-0.065,0.751,0.287c0.256,0.433,0.466,0.892,0.83,1.602
	C274.398,177.974,274.076,177.443,273.863,176.832"/>
</svg>
