<?xml version="1.0" encoding="utf-8"?>
<!-- Generator: Adobe Illustrator 16.0.0, SVG Export Plug-In . SVG Version: 6.00 Build 0)  -->
<!DOCTYPE svg PUBLIC "-//W3C//DTD SVG 1.1//EN" "http://www.w3.org/Graphics/SVG/1.1/DTD/svg11.dtd">
<svg version="1.1" id="Camada_1" xmlns="http://www.w3.org/2000/svg" xmlns:xlink="http://www.w3.org/1999/xlink" x="0px" y="0px"
	 width="32px" height="32px" viewBox="0 0 32 32" enable-background="new 0 0 32 32" xml:space="preserve">
<g>
	<defs>
		<rect id="SVGID_1_" width="32" height="32"/>
	</defs>
	<clipPath id="SVGID_2_">
		<use xlink:href="#SVGID_1_"  overflow="visible"/>
	</clipPath>
	<path clip-path="url(#SVGID_2_)" d="M16.992,5.047v0.12c0-0.04,0-0.08-0.01-0.12H16.992z"/>
	<path clip-path="url(#SVGID_2_)" d="M16.662,5.047v0.12c0-0.04,0-0.08-0.01-0.12H16.662z"/>
	<path clip-path="url(#SVGID_2_)" d="M16.912,5.047v0.12c0-0.04,0-0.08-0.01-0.12H16.912z"/>
	<rect x="16.902" y="6.167" clip-path="url(#SVGID_2_)" width="0.01" height="0.49"/>
	<path clip-path="url(#SVGID_2_)" d="M16.662,5.047v0.12c0-0.04,0-0.08-0.01-0.12H16.662z"/>
	<path clip-path="url(#SVGID_2_)" d="M23.803,5.757c-0.37-0.38-0.851-0.59-1.41-0.59h-5.48c0-0.04,0-0.08-0.01-0.12
		c-0.06-0.49-0.479-0.88-0.99-0.88c-0.56,0-1,0.45-1,1h-5.49c-0.55,0-1.04,0.21-1.4,0.59c-0.4,0.43-0.62,1.05-0.58,1.65l0.09,1.3
		v0.11l0.42,6.33c0,1.55,1.33,2.83,2.97,2.83s2.98-1.28,2.98-2.85l0.39-5.92c0.05-0.84,0.35-1.24,0.62-1.44l-0.02,16.41l-2.98,1.99
		v2h8v-2l-3-2h-0.02l0.02-16.391c0.271,0.2,0.561,0.6,0.62,1.43l0.391,5.92c0,1.57,1.329,2.85,2.97,2.85
		c1.64,0,2.979-1.28,2.979-2.83l0.41-6.33l0.01-0.11l0.08-1.3C24.412,6.807,24.202,6.187,23.803,5.757 M14.913,6.657
		c-0.67,0.22-1.51,0.88-1.62,2.47l-0.39,5.96c0,1.06-0.89,1.89-1.98,1.89s-1.98-0.83-1.98-1.85l-0.41-6.25v-0.12l-0.1-1.41
		c-0.02-0.33,0.1-0.68,0.31-0.9c0.18-0.19,0.4-0.28,0.68-0.28h5.49V6.657z M16.662,5.046v0.12c0-0.04,0-0.08-0.01-0.12H16.662z
		 M23.292,8.757l-0.01,0.12l-0.41,6.25c0,1.02-0.89,1.85-1.979,1.85s-1.98-0.83-1.98-1.89l-0.39-5.96
		c-0.11-1.58-0.93-2.24-1.61-2.47h-0.01v-0.49h5.49c0.28,0,0.51,0.09,0.68,0.28c0.21,0.22,0.33,0.57,0.311,0.9L23.292,8.757z"/>
</g>
</svg>
